<mxfile host="app.diagrams.net" modified="2024-03-30T19:53:30.676Z" agent="Mozilla/5.0 (Windows NT 10.0; Win64; x64) AppleWebKit/537.36 (KHTML, like Gecko) Chrome/123.0.0.0 Safari/537.36" etag="XH-CeoF8lQq8XzWnnRDv" version="24.2.1" type="device" pages="8">
  <diagram name="linear_interpolation" id="NQTMvXGRasjqdgeQD6Vq">
    <mxGraphModel dx="896" dy="488" grid="1" gridSize="10" guides="1" tooltips="1" connect="1" arrows="1" fold="1" page="1" pageScale="1" pageWidth="827" pageHeight="1169" math="1" shadow="0">
      <root>
        <mxCell id="0" />
        <mxCell id="1" parent="0" />
        <mxCell id="lF94IrH_nUVA3UVPvFXr-19" value="$$y_1$$&lt;span style=&quot;background-color: initial;&quot;&gt;&amp;nbsp;&lt;/span&gt;" style="text;html=1;align=center;verticalAlign=middle;resizable=0;points=[];autosize=1;strokeColor=none;fillColor=none;" vertex="1" parent="1">
          <mxGeometry x="150" y="160" width="70" height="30" as="geometry" />
        </mxCell>
        <mxCell id="lF94IrH_nUVA3UVPvFXr-20" value="$$y_0$$&lt;span style=&quot;background-color: initial;&quot;&gt;&amp;nbsp;&lt;/span&gt;" style="text;html=1;align=center;verticalAlign=middle;resizable=0;points=[];autosize=1;strokeColor=none;fillColor=none;" vertex="1" parent="1">
          <mxGeometry x="150" y="250" width="70" height="30" as="geometry" />
        </mxCell>
        <mxCell id="lF94IrH_nUVA3UVPvFXr-4" value="" style="endArrow=none;html=1;rounded=0;strokeColor=#cecaca;" edge="1" parent="1">
          <mxGeometry width="50" height="50" relative="1" as="geometry">
            <mxPoint x="200" y="260" as="sourcePoint" />
            <mxPoint x="240" y="260" as="targetPoint" />
          </mxGeometry>
        </mxCell>
        <mxCell id="lF94IrH_nUVA3UVPvFXr-5" value="" style="endArrow=none;html=1;rounded=0;strokeColor=#cecaca;" edge="1" parent="1">
          <mxGeometry width="50" height="50" relative="1" as="geometry">
            <mxPoint x="240" y="320" as="sourcePoint" />
            <mxPoint x="240" y="260" as="targetPoint" />
          </mxGeometry>
        </mxCell>
        <mxCell id="lF94IrH_nUVA3UVPvFXr-6" value="" style="endArrow=none;html=1;rounded=0;strokeColor=#cecaca;" edge="1" parent="1">
          <mxGeometry width="50" height="50" relative="1" as="geometry">
            <mxPoint x="340" y="320" as="sourcePoint" />
            <mxPoint x="340" y="170" as="targetPoint" />
          </mxGeometry>
        </mxCell>
        <mxCell id="lF94IrH_nUVA3UVPvFXr-7" value="" style="endArrow=none;html=1;rounded=0;strokeColor=#cecaca;" edge="1" parent="1">
          <mxGeometry width="50" height="50" relative="1" as="geometry">
            <mxPoint x="200" y="170" as="sourcePoint" />
            <mxPoint x="340" y="170" as="targetPoint" />
          </mxGeometry>
        </mxCell>
        <mxCell id="lF94IrH_nUVA3UVPvFXr-9" value="" style="endArrow=none;html=1;rounded=0;strokeWidth=3;" edge="1" parent="1">
          <mxGeometry width="50" height="50" relative="1" as="geometry">
            <mxPoint x="200" y="320" as="sourcePoint" />
            <mxPoint x="400" y="320" as="targetPoint" />
          </mxGeometry>
        </mxCell>
        <mxCell id="lF94IrH_nUVA3UVPvFXr-10" value="" style="endArrow=none;html=1;rounded=0;strokeWidth=3;" edge="1" parent="1">
          <mxGeometry width="50" height="50" relative="1" as="geometry">
            <mxPoint x="200" y="320" as="sourcePoint" />
            <mxPoint x="200" y="120" as="targetPoint" />
          </mxGeometry>
        </mxCell>
        <mxCell id="lF94IrH_nUVA3UVPvFXr-11" value="" style="endArrow=oval;html=1;rounded=0;strokeColor=#1404f6;strokeWidth=2;startArrow=oval;startFill=1;endFill=1;" edge="1" parent="1">
          <mxGeometry width="50" height="50" relative="1" as="geometry">
            <mxPoint x="240" y="260" as="sourcePoint" />
            <mxPoint x="340" y="170" as="targetPoint" />
          </mxGeometry>
        </mxCell>
        <mxCell id="lF94IrH_nUVA3UVPvFXr-21" value="$$x_1$$&lt;span style=&quot;background-color: initial;&quot;&gt;&amp;nbsp;&lt;/span&gt;" style="text;html=1;align=center;verticalAlign=middle;resizable=0;points=[];autosize=1;strokeColor=none;fillColor=none;" vertex="1" parent="1">
          <mxGeometry x="310" y="320" width="70" height="30" as="geometry" />
        </mxCell>
        <mxCell id="lF94IrH_nUVA3UVPvFXr-22" value="$$x_0$$&lt;span style=&quot;background-color: initial;&quot;&gt;&amp;nbsp;&lt;/span&gt;" style="text;html=1;align=center;verticalAlign=middle;resizable=0;points=[];autosize=1;strokeColor=none;fillColor=none;" vertex="1" parent="1">
          <mxGeometry x="210" y="320" width="70" height="30" as="geometry" />
        </mxCell>
        <mxCell id="lF94IrH_nUVA3UVPvFXr-23" value="" style="endArrow=none;dashed=1;html=1;rounded=0;" edge="1" parent="1">
          <mxGeometry width="50" height="50" relative="1" as="geometry">
            <mxPoint x="290" y="320" as="sourcePoint" />
            <mxPoint x="290" y="215" as="targetPoint" />
          </mxGeometry>
        </mxCell>
        <mxCell id="lF94IrH_nUVA3UVPvFXr-25" value="" style="endArrow=none;dashed=1;html=1;rounded=0;" edge="1" parent="1">
          <mxGeometry width="50" height="50" relative="1" as="geometry">
            <mxPoint x="289" y="215" as="sourcePoint" />
            <mxPoint x="199" y="215" as="targetPoint" />
          </mxGeometry>
        </mxCell>
        <mxCell id="lF94IrH_nUVA3UVPvFXr-26" value="$$(x, y)$$" style="text;html=1;align=center;verticalAlign=middle;resizable=0;points=[];autosize=1;strokeColor=none;fillColor=none;" vertex="1" parent="1">
          <mxGeometry x="270" y="200" width="80" height="30" as="geometry" />
        </mxCell>
      </root>
    </mxGraphModel>
  </diagram>
  <diagram id="1_GY2hnvwhC6Vpu2dXAA" name="include_criteria">
    <mxGraphModel dx="925" dy="503" grid="1" gridSize="10" guides="1" tooltips="1" connect="1" arrows="1" fold="1" page="1" pageScale="1" pageWidth="827" pageHeight="1169" math="1" shadow="0">
      <root>
        <mxCell id="0" />
        <mxCell id="1" parent="0" />
        <mxCell id="DzaYBJLCc9RMhCo-_HYU-18" value="" style="group" vertex="1" connectable="0" parent="1">
          <mxGeometry x="90" y="50" width="240" height="240" as="geometry" />
        </mxCell>
        <mxCell id="DzaYBJLCc9RMhCo-_HYU-1" value="&lt;b&gt;&lt;font style=&quot;font-size: 9px;&quot;&gt;MIMIC-IV data set (73181 records)&lt;/font&gt;&lt;/b&gt;" style="rounded=0;whiteSpace=wrap;html=1;" vertex="1" parent="DzaYBJLCc9RMhCo-_HYU-18">
          <mxGeometry x="42.35294117647059" width="162.35294117647058" height="24" as="geometry" />
        </mxCell>
        <mxCell id="DzaYBJLCc9RMhCo-_HYU-2" value="&lt;font style=&quot;font-size: 9px;&quot;&gt;Patients age greater than 18&lt;/font&gt;" style="rounded=1;whiteSpace=wrap;html=1;" vertex="1" parent="DzaYBJLCc9RMhCo-_HYU-18">
          <mxGeometry y="48" width="240" height="24" as="geometry" />
        </mxCell>
        <mxCell id="DzaYBJLCc9RMhCo-_HYU-3" value="&lt;font style=&quot;font-size: 9px;&quot;&gt;Patients stayed in ICU for more than 24 hours&lt;/font&gt;" style="rounded=1;whiteSpace=wrap;html=1;" vertex="1" parent="DzaYBJLCc9RMhCo-_HYU-18">
          <mxGeometry y="96" width="240" height="24" as="geometry" />
        </mxCell>
        <mxCell id="DzaYBJLCc9RMhCo-_HYU-4" value="&lt;font style=&quot;font-size: 9px;&quot;&gt;For each vital sign, there is at least one record in 12 hours&lt;/font&gt;" style="rounded=1;whiteSpace=wrap;html=1;" vertex="1" parent="DzaYBJLCc9RMhCo-_HYU-18">
          <mxGeometry y="144" width="240" height="31.999999999999996" as="geometry" />
        </mxCell>
        <mxCell id="DzaYBJLCc9RMhCo-_HYU-14" style="edgeStyle=orthogonalEdgeStyle;rounded=0;orthogonalLoop=1;jettySize=auto;html=1;exitX=0;exitY=0.5;exitDx=0;exitDy=0;" edge="1" parent="DzaYBJLCc9RMhCo-_HYU-18" source="DzaYBJLCc9RMhCo-_HYU-5">
          <mxGeometry relative="1" as="geometry">
            <mxPoint x="42.58064516129031" y="228.2709677419355" as="targetPoint" />
          </mxGeometry>
        </mxCell>
        <mxCell id="DzaYBJLCc9RMhCo-_HYU-5" value="&lt;b&gt;&lt;font style=&quot;font-size: 10px;&quot;&gt;Final included data ( 8034 records )&lt;/font&gt;&lt;/b&gt;" style="rounded=0;whiteSpace=wrap;html=1;" vertex="1" parent="DzaYBJLCc9RMhCo-_HYU-18">
          <mxGeometry x="22.857142857142854" y="216" width="205.7142857142857" height="24" as="geometry" />
        </mxCell>
        <mxCell id="DzaYBJLCc9RMhCo-_HYU-6" value="" style="endArrow=classic;html=1;rounded=0;exitX=0.5;exitY=1;exitDx=0;exitDy=0;entryX=0.514;entryY=0.033;entryDx=0;entryDy=0;entryPerimeter=0;strokeColor=#2aaaea;" edge="1" parent="DzaYBJLCc9RMhCo-_HYU-18" source="DzaYBJLCc9RMhCo-_HYU-1" target="DzaYBJLCc9RMhCo-_HYU-2">
          <mxGeometry width="50" height="50" relative="1" as="geometry">
            <mxPoint x="183.52941176470588" y="168" as="sourcePoint" />
            <mxPoint x="218.82352941176472" y="127.99999999999999" as="targetPoint" />
          </mxGeometry>
        </mxCell>
        <mxCell id="DzaYBJLCc9RMhCo-_HYU-9" value="" style="endArrow=classic;html=1;rounded=0;exitX=0.5;exitY=1;exitDx=0;exitDy=0;entryX=0.514;entryY=0.033;entryDx=0;entryDy=0;entryPerimeter=0;strokeColor=#2aaaea;" edge="1" parent="DzaYBJLCc9RMhCo-_HYU-18">
          <mxGeometry width="50" height="50" relative="1" as="geometry">
            <mxPoint x="123.32470588235293" y="72" as="sourcePoint" />
            <mxPoint x="123.32470588235293" y="96.80000000000003" as="targetPoint" />
          </mxGeometry>
        </mxCell>
        <mxCell id="DzaYBJLCc9RMhCo-_HYU-10" value="" style="endArrow=classic;html=1;rounded=0;exitX=0.5;exitY=1;exitDx=0;exitDy=0;entryX=0.514;entryY=0.033;entryDx=0;entryDy=0;entryPerimeter=0;strokeColor=#2aaaea;" edge="1" parent="DzaYBJLCc9RMhCo-_HYU-18">
          <mxGeometry width="50" height="50" relative="1" as="geometry">
            <mxPoint x="123.32470588235293" y="120" as="sourcePoint" />
            <mxPoint x="123.32470588235293" y="144.8" as="targetPoint" />
          </mxGeometry>
        </mxCell>
        <mxCell id="DzaYBJLCc9RMhCo-_HYU-17" value="" style="endArrow=classic;html=1;rounded=0;exitX=0.522;exitY=0.964;exitDx=0;exitDy=0;entryX=0.5;entryY=0;entryDx=0;entryDy=0;strokeColor=#2aaaea;exitPerimeter=0;strokeWidth=2;" edge="1" parent="DzaYBJLCc9RMhCo-_HYU-18" source="DzaYBJLCc9RMhCo-_HYU-4" target="DzaYBJLCc9RMhCo-_HYU-5">
          <mxGeometry width="50" height="50" relative="1" as="geometry">
            <mxPoint x="342.85714285714283" y="204" as="sourcePoint" />
            <mxPoint x="342.85714285714283" y="228.8" as="targetPoint" />
          </mxGeometry>
        </mxCell>
      </root>
    </mxGraphModel>
  </diagram>
  <diagram id="rILTvkEVeK_tXo2CBgJp" name="decision_tree">
    <mxGraphModel dx="652" dy="355" grid="1" gridSize="10" guides="1" tooltips="1" connect="1" arrows="1" fold="1" page="1" pageScale="1" pageWidth="827" pageHeight="1169" math="1" shadow="0">
      <root>
        <mxCell id="0" />
        <mxCell id="1" parent="0" />
        <mxCell id="rG00VNKPnC6ciFQ9ec1g-1" value="&lt;i&gt;Age&lt;/i&gt;" style="rounded=1;whiteSpace=wrap;html=1;fillColor=#dae8fc;strokeColor=#6c8ebf;" vertex="1" parent="1">
          <mxGeometry x="280" y="60" width="70" height="20" as="geometry" />
        </mxCell>
        <mxCell id="rG00VNKPnC6ciFQ9ec1g-3" value="&lt;i&gt;&lt;font style=&quot;font-size: 11px;&quot;&gt;Weight&lt;/font&gt;&lt;/i&gt;" style="rounded=1;whiteSpace=wrap;html=1;fillColor=#d5e8d4;strokeColor=#82b366;" vertex="1" parent="1">
          <mxGeometry x="180" y="110" width="60" height="20" as="geometry" />
        </mxCell>
        <mxCell id="rG00VNKPnC6ciFQ9ec1g-4" value="&lt;i&gt;Smoke&lt;/i&gt;" style="rounded=1;whiteSpace=wrap;html=1;fillColor=#e1d5e7;strokeColor=#9673a6;" vertex="1" parent="1">
          <mxGeometry x="384" y="110" width="60" height="20" as="geometry" />
        </mxCell>
        <mxCell id="rG00VNKPnC6ciFQ9ec1g-5" value="&lt;font style=&quot;font-size: 10px;&quot;&gt;&lt;i&gt;alcohol abuse&lt;/i&gt;&lt;/font&gt;" style="rounded=1;whiteSpace=wrap;html=1;fillColor=#fff2cc;strokeColor=#d6b656;" vertex="1" parent="1">
          <mxGeometry x="280" y="120" width="70" height="20" as="geometry" />
        </mxCell>
        <mxCell id="rG00VNKPnC6ciFQ9ec1g-7" value="" style="ellipse;whiteSpace=wrap;html=1;fillColor=#60a917;fontColor=#ffffff;strokeColor=#2D7600;" vertex="1" parent="1">
          <mxGeometry x="110" y="180" width="40" height="20" as="geometry" />
        </mxCell>
        <mxCell id="rG00VNKPnC6ciFQ9ec1g-8" value="" style="ellipse;whiteSpace=wrap;html=1;fillColor=#008a00;fontColor=#ffffff;strokeColor=#005700;" vertex="1" parent="1">
          <mxGeometry x="190" y="180" width="40" height="20" as="geometry" />
        </mxCell>
        <mxCell id="rG00VNKPnC6ciFQ9ec1g-9" value="" style="ellipse;whiteSpace=wrap;html=1;fillColor=#f0a30a;fontColor=#000000;strokeColor=#BD7000;" vertex="1" parent="1">
          <mxGeometry x="260" y="200" width="40" height="20" as="geometry" />
        </mxCell>
        <mxCell id="rG00VNKPnC6ciFQ9ec1g-10" value="" style="ellipse;whiteSpace=wrap;html=1;fillColor=#e3c800;fontColor=#000000;strokeColor=#B09500;" vertex="1" parent="1">
          <mxGeometry x="330" y="200" width="40" height="20" as="geometry" />
        </mxCell>
        <mxCell id="rG00VNKPnC6ciFQ9ec1g-11" value="" style="ellipse;whiteSpace=wrap;html=1;fillColor=#76608a;fontColor=#ffffff;strokeColor=#432D57;" vertex="1" parent="1">
          <mxGeometry x="384" y="180" width="40" height="20" as="geometry" />
        </mxCell>
        <mxCell id="rG00VNKPnC6ciFQ9ec1g-12" value="" style="ellipse;whiteSpace=wrap;html=1;fillColor=#c7c2f5;strokeColor=#56517e;" vertex="1" parent="1">
          <mxGeometry x="444" y="200" width="40" height="20" as="geometry" />
        </mxCell>
        <mxCell id="rG00VNKPnC6ciFQ9ec1g-13" value="" style="ellipse;whiteSpace=wrap;html=1;fillColor=#b8b3e6;strokeColor=#56517e;" vertex="1" parent="1">
          <mxGeometry x="500" y="180" width="40" height="20" as="geometry" />
        </mxCell>
        <mxCell id="rG00VNKPnC6ciFQ9ec1g-14" value="" style="endArrow=none;html=1;rounded=0;entryX=0.5;entryY=1;entryDx=0;entryDy=0;exitX=0.5;exitY=0;exitDx=0;exitDy=0;" edge="1" parent="1" source="rG00VNKPnC6ciFQ9ec1g-3" target="rG00VNKPnC6ciFQ9ec1g-1">
          <mxGeometry width="50" height="50" relative="1" as="geometry">
            <mxPoint x="290" y="220" as="sourcePoint" />
            <mxPoint x="340" y="170" as="targetPoint" />
          </mxGeometry>
        </mxCell>
        <mxCell id="rG00VNKPnC6ciFQ9ec1g-26" value="&amp;lt;30" style="edgeLabel;html=1;align=center;verticalAlign=middle;resizable=0;points=[];fontSize=8;" vertex="1" connectable="0" parent="rG00VNKPnC6ciFQ9ec1g-14">
          <mxGeometry x="-0.1662" y="1" relative="1" as="geometry">
            <mxPoint as="offset" />
          </mxGeometry>
        </mxCell>
        <mxCell id="rG00VNKPnC6ciFQ9ec1g-15" value="" style="endArrow=none;html=1;rounded=0;entryX=0.5;entryY=1;entryDx=0;entryDy=0;exitX=0.5;exitY=0;exitDx=0;exitDy=0;" edge="1" parent="1" source="rG00VNKPnC6ciFQ9ec1g-5" target="rG00VNKPnC6ciFQ9ec1g-1">
          <mxGeometry width="50" height="50" relative="1" as="geometry">
            <mxPoint x="290" y="220" as="sourcePoint" />
            <mxPoint x="340" y="170" as="targetPoint" />
          </mxGeometry>
        </mxCell>
        <mxCell id="rG00VNKPnC6ciFQ9ec1g-27" value="30-55" style="edgeLabel;html=1;align=center;verticalAlign=middle;resizable=0;points=[];fontSize=8;" vertex="1" connectable="0" parent="rG00VNKPnC6ciFQ9ec1g-15">
          <mxGeometry relative="1" as="geometry">
            <mxPoint as="offset" />
          </mxGeometry>
        </mxCell>
        <mxCell id="rG00VNKPnC6ciFQ9ec1g-16" value="" style="endArrow=none;html=1;rounded=0;entryX=0.5;entryY=1;entryDx=0;entryDy=0;exitX=0.5;exitY=0;exitDx=0;exitDy=0;" edge="1" parent="1" source="rG00VNKPnC6ciFQ9ec1g-4" target="rG00VNKPnC6ciFQ9ec1g-1">
          <mxGeometry width="50" height="50" relative="1" as="geometry">
            <mxPoint x="290" y="220" as="sourcePoint" />
            <mxPoint x="340" y="170" as="targetPoint" />
          </mxGeometry>
        </mxCell>
        <mxCell id="rG00VNKPnC6ciFQ9ec1g-28" value="&lt;font style=&quot;font-size: 8px;&quot;&gt;&amp;gt;55&lt;/font&gt;" style="edgeLabel;html=1;align=center;verticalAlign=middle;resizable=0;points=[];" vertex="1" connectable="0" parent="rG00VNKPnC6ciFQ9ec1g-16">
          <mxGeometry x="-0.0168" relative="1" as="geometry">
            <mxPoint as="offset" />
          </mxGeometry>
        </mxCell>
        <mxCell id="rG00VNKPnC6ciFQ9ec1g-17" value="" style="endArrow=none;html=1;rounded=0;exitX=0.5;exitY=0;exitDx=0;exitDy=0;" edge="1" parent="1" source="rG00VNKPnC6ciFQ9ec1g-7">
          <mxGeometry width="50" height="50" relative="1" as="geometry">
            <mxPoint x="160" y="180" as="sourcePoint" />
            <mxPoint x="210" y="130" as="targetPoint" />
          </mxGeometry>
        </mxCell>
        <mxCell id="rG00VNKPnC6ciFQ9ec1g-29" value="&lt;font style=&quot;font-size: 8px;&quot;&gt;&amp;gt;100kg&lt;/font&gt;" style="edgeLabel;html=1;align=center;verticalAlign=middle;resizable=0;points=[];" vertex="1" connectable="0" parent="rG00VNKPnC6ciFQ9ec1g-17">
          <mxGeometry x="-0.0451" y="-1" relative="1" as="geometry">
            <mxPoint as="offset" />
          </mxGeometry>
        </mxCell>
        <mxCell id="rG00VNKPnC6ciFQ9ec1g-18" value="" style="endArrow=none;html=1;rounded=0;entryX=0.5;entryY=1;entryDx=0;entryDy=0;exitX=0.5;exitY=0;exitDx=0;exitDy=0;" edge="1" parent="1" source="rG00VNKPnC6ciFQ9ec1g-8" target="rG00VNKPnC6ciFQ9ec1g-3">
          <mxGeometry width="50" height="50" relative="1" as="geometry">
            <mxPoint x="290" y="220" as="sourcePoint" />
            <mxPoint x="340" y="170" as="targetPoint" />
          </mxGeometry>
        </mxCell>
        <mxCell id="rG00VNKPnC6ciFQ9ec1g-30" value="&lt;font style=&quot;font-size: 8px;&quot;&gt;50-100kg&lt;/font&gt;" style="edgeLabel;html=1;align=center;verticalAlign=middle;resizable=0;points=[];" vertex="1" connectable="0" parent="rG00VNKPnC6ciFQ9ec1g-18">
          <mxGeometry x="-0.0545" relative="1" as="geometry">
            <mxPoint as="offset" />
          </mxGeometry>
        </mxCell>
        <mxCell id="rG00VNKPnC6ciFQ9ec1g-19" value="" style="endArrow=none;html=1;rounded=0;entryX=0.5;entryY=1;entryDx=0;entryDy=0;exitX=0.5;exitY=0;exitDx=0;exitDy=0;" edge="1" parent="1" source="rG00VNKPnC6ciFQ9ec1g-9" target="rG00VNKPnC6ciFQ9ec1g-5">
          <mxGeometry width="50" height="50" relative="1" as="geometry">
            <mxPoint x="290" y="220" as="sourcePoint" />
            <mxPoint x="340" y="170" as="targetPoint" />
          </mxGeometry>
        </mxCell>
        <mxCell id="rG00VNKPnC6ciFQ9ec1g-31" value="&lt;font style=&quot;font-size: 8px;&quot;&gt;Yes&lt;/font&gt;" style="edgeLabel;html=1;align=center;verticalAlign=middle;resizable=0;points=[];" vertex="1" connectable="0" parent="rG00VNKPnC6ciFQ9ec1g-19">
          <mxGeometry x="-0.0351" relative="1" as="geometry">
            <mxPoint as="offset" />
          </mxGeometry>
        </mxCell>
        <mxCell id="rG00VNKPnC6ciFQ9ec1g-20" value="" style="endArrow=none;html=1;rounded=0;entryX=0.5;entryY=1;entryDx=0;entryDy=0;exitX=0.5;exitY=0;exitDx=0;exitDy=0;" edge="1" parent="1" source="rG00VNKPnC6ciFQ9ec1g-10" target="rG00VNKPnC6ciFQ9ec1g-5">
          <mxGeometry width="50" height="50" relative="1" as="geometry">
            <mxPoint x="240" y="320" as="sourcePoint" />
            <mxPoint x="290" y="270" as="targetPoint" />
          </mxGeometry>
        </mxCell>
        <mxCell id="rG00VNKPnC6ciFQ9ec1g-32" value="&lt;font style=&quot;font-size: 8px;&quot;&gt;No&lt;/font&gt;" style="edgeLabel;html=1;align=center;verticalAlign=middle;resizable=0;points=[];" vertex="1" connectable="0" parent="rG00VNKPnC6ciFQ9ec1g-20">
          <mxGeometry x="-0.0186" relative="1" as="geometry">
            <mxPoint as="offset" />
          </mxGeometry>
        </mxCell>
        <mxCell id="rG00VNKPnC6ciFQ9ec1g-21" value="" style="endArrow=none;html=1;rounded=0;entryX=0.5;entryY=1;entryDx=0;entryDy=0;exitX=0.5;exitY=0;exitDx=0;exitDy=0;" edge="1" parent="1" source="rG00VNKPnC6ciFQ9ec1g-11" target="rG00VNKPnC6ciFQ9ec1g-4">
          <mxGeometry width="50" height="50" relative="1" as="geometry">
            <mxPoint x="290" y="220" as="sourcePoint" />
            <mxPoint x="340" y="170" as="targetPoint" />
          </mxGeometry>
        </mxCell>
        <mxCell id="rG00VNKPnC6ciFQ9ec1g-33" value="&lt;font style=&quot;font-size: 8px;&quot;&gt;Always&lt;/font&gt;" style="edgeLabel;html=1;align=center;verticalAlign=middle;resizable=0;points=[];" vertex="1" connectable="0" parent="rG00VNKPnC6ciFQ9ec1g-21">
          <mxGeometry x="-0.0462" y="-1" relative="1" as="geometry">
            <mxPoint as="offset" />
          </mxGeometry>
        </mxCell>
        <mxCell id="rG00VNKPnC6ciFQ9ec1g-22" value="" style="endArrow=none;html=1;rounded=0;entryX=0.5;entryY=1;entryDx=0;entryDy=0;exitX=0.5;exitY=0;exitDx=0;exitDy=0;" edge="1" parent="1" source="rG00VNKPnC6ciFQ9ec1g-12" target="rG00VNKPnC6ciFQ9ec1g-4">
          <mxGeometry width="50" height="50" relative="1" as="geometry">
            <mxPoint x="290" y="220" as="sourcePoint" />
            <mxPoint x="340" y="170" as="targetPoint" />
          </mxGeometry>
        </mxCell>
        <mxCell id="rG00VNKPnC6ciFQ9ec1g-34" value="&lt;font style=&quot;font-size: 7px;&quot;&gt;Never&lt;/font&gt;" style="edgeLabel;html=1;align=center;verticalAlign=middle;resizable=0;points=[];" vertex="1" connectable="0" parent="rG00VNKPnC6ciFQ9ec1g-22">
          <mxGeometry x="-0.0982" y="-1" relative="1" as="geometry">
            <mxPoint as="offset" />
          </mxGeometry>
        </mxCell>
        <mxCell id="rG00VNKPnC6ciFQ9ec1g-23" value="" style="endArrow=none;html=1;rounded=0;exitX=0.5;exitY=0;exitDx=0;exitDy=0;entryX=0.5;entryY=1;entryDx=0;entryDy=0;" edge="1" parent="1" source="rG00VNKPnC6ciFQ9ec1g-13" target="rG00VNKPnC6ciFQ9ec1g-4">
          <mxGeometry width="50" height="50" relative="1" as="geometry">
            <mxPoint x="290" y="220" as="sourcePoint" />
            <mxPoint x="410" y="130" as="targetPoint" />
          </mxGeometry>
        </mxCell>
        <mxCell id="rG00VNKPnC6ciFQ9ec1g-35" value="&lt;font style=&quot;font-size: 7px;&quot;&gt;Sometimes&lt;/font&gt;" style="edgeLabel;html=1;align=center;verticalAlign=middle;resizable=0;points=[];" vertex="1" connectable="0" parent="rG00VNKPnC6ciFQ9ec1g-23">
          <mxGeometry x="-0.1125" relative="1" as="geometry">
            <mxPoint as="offset" />
          </mxGeometry>
        </mxCell>
        <mxCell id="rG00VNKPnC6ciFQ9ec1g-24" value="&lt;font color=&quot;#a1a1a1&quot; style=&quot;font-size: 10px;&quot;&gt;&lt;u&gt;Root Node&lt;/u&gt;&lt;/font&gt;" style="text;html=1;align=center;verticalAlign=middle;resizable=0;points=[];autosize=1;strokeColor=none;fillColor=none;" vertex="1" parent="1">
          <mxGeometry x="190" y="55" width="70" height="30" as="geometry" />
        </mxCell>
        <mxCell id="rG00VNKPnC6ciFQ9ec1g-25" value="&lt;font color=&quot;#b0b0b0&quot; style=&quot;font-size: 10px;&quot;&gt;&lt;u&gt;Leaf Node&lt;/u&gt;&lt;/font&gt;" style="text;html=1;align=center;verticalAlign=middle;resizable=0;points=[];autosize=1;strokeColor=none;fillColor=none;" vertex="1" parent="1">
          <mxGeometry x="20" y="175" width="70" height="30" as="geometry" />
        </mxCell>
      </root>
    </mxGraphModel>
  </diagram>
  <diagram id="dtNpEfnBr9HFBLdB4Wrh" name="neural_network">
    <mxGraphModel dx="1247" dy="678" grid="1" gridSize="10" guides="1" tooltips="1" connect="1" arrows="1" fold="1" page="1" pageScale="1" pageWidth="827" pageHeight="1169" math="1" shadow="0">
      <root>
        <mxCell id="0" />
        <mxCell id="1" parent="0" />
        <mxCell id="35lLFvIV_164izUU4NRH-3" value="" style="ellipse;whiteSpace=wrap;html=1;aspect=fixed;fillColor=#b1ddf0;strokeColor=#10739e;" vertex="1" parent="1">
          <mxGeometry x="120" y="160" width="40" height="40" as="geometry" />
        </mxCell>
        <mxCell id="35lLFvIV_164izUU4NRH-4" value="" style="ellipse;whiteSpace=wrap;html=1;aspect=fixed;fillColor=#b1ddf0;strokeColor=#10739e;" vertex="1" parent="1">
          <mxGeometry x="120" y="250" width="40" height="40" as="geometry" />
        </mxCell>
        <mxCell id="35lLFvIV_164izUU4NRH-5" value="" style="ellipse;whiteSpace=wrap;html=1;aspect=fixed;fillColor=#b1ddf0;strokeColor=#10739e;" vertex="1" parent="1">
          <mxGeometry x="120" y="340" width="40" height="40" as="geometry" />
        </mxCell>
        <mxCell id="35lLFvIV_164izUU4NRH-6" value="" style="ellipse;whiteSpace=wrap;html=1;aspect=fixed;fillColor=#b1ddf0;strokeColor=#10739e;" vertex="1" parent="1">
          <mxGeometry x="120" y="430" width="40" height="40" as="geometry" />
        </mxCell>
        <mxCell id="35lLFvIV_164izUU4NRH-7" value="" style="ellipse;whiteSpace=wrap;html=1;aspect=fixed;fillColor=#b1ddf0;strokeColor=#10739e;" vertex="1" parent="1">
          <mxGeometry x="280" y="110" width="40" height="40" as="geometry" />
        </mxCell>
        <mxCell id="35lLFvIV_164izUU4NRH-8" value="" style="ellipse;whiteSpace=wrap;html=1;aspect=fixed;fillColor=#b1ddf0;strokeColor=#10739e;" vertex="1" parent="1">
          <mxGeometry x="280" y="190" width="40" height="40" as="geometry" />
        </mxCell>
        <mxCell id="35lLFvIV_164izUU4NRH-9" value="" style="ellipse;whiteSpace=wrap;html=1;aspect=fixed;fillColor=#b1ddf0;strokeColor=#10739e;" vertex="1" parent="1">
          <mxGeometry x="280" y="270" width="40" height="40" as="geometry" />
        </mxCell>
        <mxCell id="35lLFvIV_164izUU4NRH-10" value="" style="ellipse;whiteSpace=wrap;html=1;aspect=fixed;fillColor=#b1ddf0;strokeColor=#10739e;" vertex="1" parent="1">
          <mxGeometry x="280" y="360" width="40" height="40" as="geometry" />
        </mxCell>
        <mxCell id="35lLFvIV_164izUU4NRH-11" value="" style="ellipse;whiteSpace=wrap;html=1;aspect=fixed;fillColor=#b1ddf0;strokeColor=#10739e;" vertex="1" parent="1">
          <mxGeometry x="280" y="440" width="40" height="40" as="geometry" />
        </mxCell>
        <mxCell id="35lLFvIV_164izUU4NRH-12" value="" style="ellipse;whiteSpace=wrap;html=1;aspect=fixed;fillColor=#b1ddf0;strokeColor=#10739e;" vertex="1" parent="1">
          <mxGeometry x="280" y="520" width="40" height="40" as="geometry" />
        </mxCell>
        <mxCell id="35lLFvIV_164izUU4NRH-13" value="" style="ellipse;whiteSpace=wrap;html=1;aspect=fixed;fillColor=#b1ddf0;strokeColor=#10739e;" vertex="1" parent="1">
          <mxGeometry x="440" y="110" width="40" height="40" as="geometry" />
        </mxCell>
        <mxCell id="35lLFvIV_164izUU4NRH-14" value="" style="ellipse;whiteSpace=wrap;html=1;aspect=fixed;fillColor=#b1ddf0;strokeColor=#10739e;" vertex="1" parent="1">
          <mxGeometry x="440" y="190" width="40" height="40" as="geometry" />
        </mxCell>
        <mxCell id="35lLFvIV_164izUU4NRH-15" value="" style="ellipse;whiteSpace=wrap;html=1;aspect=fixed;fillColor=#b1ddf0;strokeColor=#10739e;" vertex="1" parent="1">
          <mxGeometry x="440" y="270" width="40" height="40" as="geometry" />
        </mxCell>
        <mxCell id="35lLFvIV_164izUU4NRH-16" value="" style="ellipse;whiteSpace=wrap;html=1;aspect=fixed;fillColor=#b1ddf0;strokeColor=#10739e;" vertex="1" parent="1">
          <mxGeometry x="440" y="360" width="40" height="40" as="geometry" />
        </mxCell>
        <mxCell id="35lLFvIV_164izUU4NRH-17" value="" style="ellipse;whiteSpace=wrap;html=1;aspect=fixed;fillColor=#b1ddf0;strokeColor=#10739e;" vertex="1" parent="1">
          <mxGeometry x="440" y="440" width="40" height="40" as="geometry" />
        </mxCell>
        <mxCell id="35lLFvIV_164izUU4NRH-18" value="" style="ellipse;whiteSpace=wrap;html=1;aspect=fixed;fillColor=#b1ddf0;strokeColor=#10739e;" vertex="1" parent="1">
          <mxGeometry x="440" y="520" width="40" height="40" as="geometry" />
        </mxCell>
        <mxCell id="35lLFvIV_164izUU4NRH-19" value="" style="ellipse;whiteSpace=wrap;html=1;aspect=fixed;fillColor=#b1ddf0;strokeColor=#10739e;" vertex="1" parent="1">
          <mxGeometry x="600" y="190" width="40" height="40" as="geometry" />
        </mxCell>
        <mxCell id="35lLFvIV_164izUU4NRH-20" value="" style="ellipse;whiteSpace=wrap;html=1;aspect=fixed;fillColor=#b1ddf0;strokeColor=#10739e;" vertex="1" parent="1">
          <mxGeometry x="600" y="280" width="40" height="40" as="geometry" />
        </mxCell>
        <mxCell id="35lLFvIV_164izUU4NRH-21" value="" style="ellipse;whiteSpace=wrap;html=1;aspect=fixed;fillColor=#b1ddf0;strokeColor=#10739e;" vertex="1" parent="1">
          <mxGeometry x="600" y="370" width="40" height="40" as="geometry" />
        </mxCell>
        <mxCell id="35lLFvIV_164izUU4NRH-22" value="" style="ellipse;whiteSpace=wrap;html=1;aspect=fixed;fillColor=#b1ddf0;strokeColor=#10739e;" vertex="1" parent="1">
          <mxGeometry x="720" y="280" width="40" height="40" as="geometry" />
        </mxCell>
        <mxCell id="35lLFvIV_164izUU4NRH-23" value="" style="endArrow=none;html=1;rounded=0;strokeColor=#02e2f2;exitX=1;exitY=0.5;exitDx=0;exitDy=0;entryX=0;entryY=0.5;entryDx=0;entryDy=0;" edge="1" parent="1" source="35lLFvIV_164izUU4NRH-3" target="35lLFvIV_164izUU4NRH-7">
          <mxGeometry width="50" height="50" relative="1" as="geometry">
            <mxPoint x="280" y="360" as="sourcePoint" />
            <mxPoint x="330" y="310" as="targetPoint" />
          </mxGeometry>
        </mxCell>
        <mxCell id="35lLFvIV_164izUU4NRH-24" value="" style="endArrow=none;html=1;rounded=0;strokeColor=#02e2f2;exitX=1;exitY=0.5;exitDx=0;exitDy=0;entryX=0;entryY=0.5;entryDx=0;entryDy=0;" edge="1" parent="1" source="35lLFvIV_164izUU4NRH-3" target="35lLFvIV_164izUU4NRH-8">
          <mxGeometry width="50" height="50" relative="1" as="geometry">
            <mxPoint x="210" y="210" as="sourcePoint" />
            <mxPoint x="330" y="160" as="targetPoint" />
          </mxGeometry>
        </mxCell>
        <mxCell id="35lLFvIV_164izUU4NRH-25" value="" style="endArrow=none;html=1;rounded=0;strokeColor=#02e2f2;exitX=1;exitY=0.5;exitDx=0;exitDy=0;entryX=0;entryY=0.5;entryDx=0;entryDy=0;" edge="1" parent="1" source="35lLFvIV_164izUU4NRH-3" target="35lLFvIV_164izUU4NRH-9">
          <mxGeometry width="50" height="50" relative="1" as="geometry">
            <mxPoint x="190" y="240" as="sourcePoint" />
            <mxPoint x="310" y="190" as="targetPoint" />
          </mxGeometry>
        </mxCell>
        <mxCell id="35lLFvIV_164izUU4NRH-26" value="" style="endArrow=none;html=1;rounded=0;strokeColor=#02e2f2;exitX=1;exitY=0.5;exitDx=0;exitDy=0;entryX=0;entryY=0.5;entryDx=0;entryDy=0;" edge="1" parent="1" source="35lLFvIV_164izUU4NRH-3" target="35lLFvIV_164izUU4NRH-10">
          <mxGeometry width="50" height="50" relative="1" as="geometry">
            <mxPoint x="200" y="280" as="sourcePoint" />
            <mxPoint x="320" y="230" as="targetPoint" />
          </mxGeometry>
        </mxCell>
        <mxCell id="35lLFvIV_164izUU4NRH-27" value="" style="endArrow=none;html=1;rounded=0;strokeColor=#02e2f2;exitX=0;exitY=0.5;exitDx=0;exitDy=0;" edge="1" parent="1" source="35lLFvIV_164izUU4NRH-11">
          <mxGeometry width="50" height="50" relative="1" as="geometry">
            <mxPoint x="230" y="400" as="sourcePoint" />
            <mxPoint x="160" y="180" as="targetPoint" />
          </mxGeometry>
        </mxCell>
        <mxCell id="35lLFvIV_164izUU4NRH-28" value="" style="endArrow=none;html=1;rounded=0;strokeColor=#02e2f2;entryX=0;entryY=0.5;entryDx=0;entryDy=0;" edge="1" parent="1" target="35lLFvIV_164izUU4NRH-12">
          <mxGeometry width="50" height="50" relative="1" as="geometry">
            <mxPoint x="160" y="180" as="sourcePoint" />
            <mxPoint x="780" y="520" as="targetPoint" />
          </mxGeometry>
        </mxCell>
        <mxCell id="35lLFvIV_164izUU4NRH-29" value="" style="endArrow=none;html=1;rounded=0;strokeColor=#02e2f2;exitX=1;exitY=0.5;exitDx=0;exitDy=0;entryX=0;entryY=0.5;entryDx=0;entryDy=0;" edge="1" parent="1" source="35lLFvIV_164izUU4NRH-4" target="35lLFvIV_164izUU4NRH-7">
          <mxGeometry width="50" height="50" relative="1" as="geometry">
            <mxPoint x="160" y="20" as="sourcePoint" />
            <mxPoint x="280" y="-30" as="targetPoint" />
          </mxGeometry>
        </mxCell>
        <mxCell id="35lLFvIV_164izUU4NRH-30" value="" style="endArrow=none;html=1;rounded=0;strokeColor=#02e2f2;exitX=1;exitY=0.5;exitDx=0;exitDy=0;" edge="1" parent="1" source="35lLFvIV_164izUU4NRH-4">
          <mxGeometry width="50" height="50" relative="1" as="geometry">
            <mxPoint x="60" y="130" as="sourcePoint" />
            <mxPoint x="280" y="210" as="targetPoint" />
          </mxGeometry>
        </mxCell>
        <mxCell id="35lLFvIV_164izUU4NRH-31" value="" style="endArrow=none;html=1;rounded=0;strokeColor=#02e2f2;entryX=0;entryY=0.5;entryDx=0;entryDy=0;" edge="1" parent="1" target="35lLFvIV_164izUU4NRH-9">
          <mxGeometry width="50" height="50" relative="1" as="geometry">
            <mxPoint x="160" y="270" as="sourcePoint" />
            <mxPoint x="270" y="20" as="targetPoint" />
          </mxGeometry>
        </mxCell>
        <mxCell id="35lLFvIV_164izUU4NRH-32" value="" style="endArrow=none;html=1;rounded=0;strokeColor=#02e2f2;exitX=1;exitY=0.5;exitDx=0;exitDy=0;entryX=0;entryY=0.5;entryDx=0;entryDy=0;" edge="1" parent="1" source="35lLFvIV_164izUU4NRH-4" target="35lLFvIV_164izUU4NRH-10">
          <mxGeometry width="50" height="50" relative="1" as="geometry">
            <mxPoint x="110" y="60" as="sourcePoint" />
            <mxPoint x="230" y="10" as="targetPoint" />
          </mxGeometry>
        </mxCell>
        <mxCell id="35lLFvIV_164izUU4NRH-33" value="" style="endArrow=none;html=1;rounded=0;strokeColor=#02e2f2;" edge="1" parent="1">
          <mxGeometry width="50" height="50" relative="1" as="geometry">
            <mxPoint x="160" y="270" as="sourcePoint" />
            <mxPoint x="280" y="460" as="targetPoint" />
          </mxGeometry>
        </mxCell>
        <mxCell id="35lLFvIV_164izUU4NRH-34" value="" style="endArrow=none;html=1;rounded=0;strokeColor=#02e2f2;exitX=1;exitY=0.5;exitDx=0;exitDy=0;entryX=0;entryY=0.5;entryDx=0;entryDy=0;" edge="1" parent="1" source="35lLFvIV_164izUU4NRH-4" target="35lLFvIV_164izUU4NRH-12">
          <mxGeometry width="50" height="50" relative="1" as="geometry">
            <mxPoint x="130" y="50" as="sourcePoint" />
            <mxPoint x="250" as="targetPoint" />
          </mxGeometry>
        </mxCell>
        <mxCell id="35lLFvIV_164izUU4NRH-35" value="" style="endArrow=none;html=1;rounded=0;strokeColor=#02e2f2;exitX=1;exitY=0.5;exitDx=0;exitDy=0;entryX=0;entryY=0.5;entryDx=0;entryDy=0;" edge="1" parent="1" source="35lLFvIV_164izUU4NRH-5" target="35lLFvIV_164izUU4NRH-7">
          <mxGeometry width="50" height="50" relative="1" as="geometry">
            <mxPoint x="60" y="40" as="sourcePoint" />
            <mxPoint x="180" y="-10" as="targetPoint" />
          </mxGeometry>
        </mxCell>
        <mxCell id="35lLFvIV_164izUU4NRH-36" value="" style="endArrow=none;html=1;rounded=0;strokeColor=#02e2f2;exitX=1;exitY=0.5;exitDx=0;exitDy=0;entryX=0;entryY=0.5;entryDx=0;entryDy=0;" edge="1" parent="1" source="35lLFvIV_164izUU4NRH-5" target="35lLFvIV_164izUU4NRH-8">
          <mxGeometry width="50" height="50" relative="1" as="geometry">
            <mxPoint x="130" y="20" as="sourcePoint" />
            <mxPoint x="250" y="-30" as="targetPoint" />
          </mxGeometry>
        </mxCell>
        <mxCell id="35lLFvIV_164izUU4NRH-37" value="" style="endArrow=none;html=1;rounded=0;strokeColor=#02e2f2;exitX=1;exitY=0.5;exitDx=0;exitDy=0;entryX=0;entryY=0.5;entryDx=0;entryDy=0;" edge="1" parent="1" source="35lLFvIV_164izUU4NRH-5" target="35lLFvIV_164izUU4NRH-9">
          <mxGeometry width="50" height="50" relative="1" as="geometry">
            <mxPoint x="120" y="20" as="sourcePoint" />
            <mxPoint x="240" y="-30" as="targetPoint" />
          </mxGeometry>
        </mxCell>
        <mxCell id="35lLFvIV_164izUU4NRH-38" value="" style="endArrow=none;html=1;rounded=0;strokeColor=#02e2f2;exitX=1;exitY=0.5;exitDx=0;exitDy=0;entryX=0;entryY=0.5;entryDx=0;entryDy=0;" edge="1" parent="1" source="35lLFvIV_164izUU4NRH-5" target="35lLFvIV_164izUU4NRH-10">
          <mxGeometry width="50" height="50" relative="1" as="geometry">
            <mxPoint x="310" y="330" as="sourcePoint" />
            <mxPoint x="430" y="280" as="targetPoint" />
          </mxGeometry>
        </mxCell>
        <mxCell id="35lLFvIV_164izUU4NRH-39" value="" style="endArrow=none;html=1;rounded=0;strokeColor=#02e2f2;entryX=0;entryY=0.5;entryDx=0;entryDy=0;" edge="1" parent="1" target="35lLFvIV_164izUU4NRH-11">
          <mxGeometry width="50" height="50" relative="1" as="geometry">
            <mxPoint x="160" y="360" as="sourcePoint" />
            <mxPoint x="440" y="290" as="targetPoint" />
          </mxGeometry>
        </mxCell>
        <mxCell id="35lLFvIV_164izUU4NRH-40" value="" style="endArrow=none;html=1;rounded=0;strokeColor=#02e2f2;exitX=1;exitY=0.5;exitDx=0;exitDy=0;entryX=0;entryY=0.5;entryDx=0;entryDy=0;" edge="1" parent="1" source="35lLFvIV_164izUU4NRH-5" target="35lLFvIV_164izUU4NRH-12">
          <mxGeometry width="50" height="50" relative="1" as="geometry">
            <mxPoint x="330" y="350" as="sourcePoint" />
            <mxPoint x="450" y="300" as="targetPoint" />
          </mxGeometry>
        </mxCell>
        <mxCell id="35lLFvIV_164izUU4NRH-41" value="" style="endArrow=none;html=1;rounded=0;strokeColor=#02e2f2;exitX=1;exitY=0.5;exitDx=0;exitDy=0;" edge="1" parent="1" source="35lLFvIV_164izUU4NRH-6">
          <mxGeometry width="50" height="50" relative="1" as="geometry">
            <mxPoint x="110" y="585" as="sourcePoint" />
            <mxPoint x="280" y="130" as="targetPoint" />
          </mxGeometry>
        </mxCell>
        <mxCell id="35lLFvIV_164izUU4NRH-42" value="" style="endArrow=none;html=1;rounded=0;strokeColor=#02e2f2;entryX=0;entryY=0.5;entryDx=0;entryDy=0;" edge="1" parent="1" target="35lLFvIV_164izUU4NRH-8">
          <mxGeometry width="50" height="50" relative="1" as="geometry">
            <mxPoint x="160" y="450" as="sourcePoint" />
            <mxPoint x="470" y="320" as="targetPoint" />
          </mxGeometry>
        </mxCell>
        <mxCell id="35lLFvIV_164izUU4NRH-43" value="" style="endArrow=none;html=1;rounded=0;strokeColor=#02e2f2;exitX=1;exitY=0.5;exitDx=0;exitDy=0;" edge="1" parent="1" source="35lLFvIV_164izUU4NRH-6">
          <mxGeometry width="50" height="50" relative="1" as="geometry">
            <mxPoint x="360" y="380" as="sourcePoint" />
            <mxPoint x="280" y="290" as="targetPoint" />
          </mxGeometry>
        </mxCell>
        <mxCell id="35lLFvIV_164izUU4NRH-44" value="" style="endArrow=none;html=1;rounded=0;strokeColor=#02e2f2;exitX=1;exitY=0.5;exitDx=0;exitDy=0;entryX=0;entryY=0.5;entryDx=0;entryDy=0;" edge="1" parent="1" source="35lLFvIV_164izUU4NRH-6" target="35lLFvIV_164izUU4NRH-10">
          <mxGeometry width="50" height="50" relative="1" as="geometry">
            <mxPoint x="370" y="390" as="sourcePoint" />
            <mxPoint x="490" y="340" as="targetPoint" />
          </mxGeometry>
        </mxCell>
        <mxCell id="35lLFvIV_164izUU4NRH-45" value="" style="endArrow=none;html=1;rounded=0;strokeColor=#02e2f2;exitX=1;exitY=0.5;exitDx=0;exitDy=0;entryX=0;entryY=0.5;entryDx=0;entryDy=0;" edge="1" parent="1" source="35lLFvIV_164izUU4NRH-6" target="35lLFvIV_164izUU4NRH-11">
          <mxGeometry width="50" height="50" relative="1" as="geometry">
            <mxPoint x="380" y="400" as="sourcePoint" />
            <mxPoint x="500" y="350" as="targetPoint" />
          </mxGeometry>
        </mxCell>
        <mxCell id="35lLFvIV_164izUU4NRH-46" value="" style="endArrow=none;html=1;rounded=0;strokeColor=#02e2f2;entryX=0;entryY=0.5;entryDx=0;entryDy=0;" edge="1" parent="1" target="35lLFvIV_164izUU4NRH-12">
          <mxGeometry width="50" height="50" relative="1" as="geometry">
            <mxPoint x="160" y="450" as="sourcePoint" />
            <mxPoint x="510" y="360" as="targetPoint" />
          </mxGeometry>
        </mxCell>
        <mxCell id="35lLFvIV_164izUU4NRH-47" value="" style="endArrow=none;html=1;rounded=0;strokeColor=#02e2f2;exitX=1;exitY=0.5;exitDx=0;exitDy=0;entryX=0;entryY=0.5;entryDx=0;entryDy=0;" edge="1" parent="1" source="35lLFvIV_164izUU4NRH-7" target="35lLFvIV_164izUU4NRH-13">
          <mxGeometry width="50" height="50" relative="1" as="geometry">
            <mxPoint x="400" y="420" as="sourcePoint" />
            <mxPoint x="520" y="370" as="targetPoint" />
          </mxGeometry>
        </mxCell>
        <mxCell id="35lLFvIV_164izUU4NRH-48" value="" style="endArrow=none;html=1;rounded=0;strokeColor=#02e2f2;exitX=1;exitY=0.5;exitDx=0;exitDy=0;entryX=0;entryY=0.5;entryDx=0;entryDy=0;" edge="1" parent="1" source="35lLFvIV_164izUU4NRH-7" target="35lLFvIV_164izUU4NRH-14">
          <mxGeometry width="50" height="50" relative="1" as="geometry">
            <mxPoint x="410" y="430" as="sourcePoint" />
            <mxPoint x="530" y="380" as="targetPoint" />
          </mxGeometry>
        </mxCell>
        <mxCell id="35lLFvIV_164izUU4NRH-49" value="" style="endArrow=none;html=1;rounded=0;strokeColor=#02e2f2;exitX=1;exitY=0.5;exitDx=0;exitDy=0;entryX=0;entryY=0.5;entryDx=0;entryDy=0;" edge="1" parent="1" source="35lLFvIV_164izUU4NRH-7" target="35lLFvIV_164izUU4NRH-15">
          <mxGeometry width="50" height="50" relative="1" as="geometry">
            <mxPoint x="420" y="440" as="sourcePoint" />
            <mxPoint x="540" y="390" as="targetPoint" />
          </mxGeometry>
        </mxCell>
        <mxCell id="35lLFvIV_164izUU4NRH-50" value="" style="endArrow=none;html=1;rounded=0;strokeColor=#02e2f2;exitX=1;exitY=0.5;exitDx=0;exitDy=0;entryX=0;entryY=0.5;entryDx=0;entryDy=0;" edge="1" parent="1" source="35lLFvIV_164izUU4NRH-7" target="35lLFvIV_164izUU4NRH-16">
          <mxGeometry width="50" height="50" relative="1" as="geometry">
            <mxPoint x="430" y="450" as="sourcePoint" />
            <mxPoint x="550" y="400" as="targetPoint" />
          </mxGeometry>
        </mxCell>
        <mxCell id="35lLFvIV_164izUU4NRH-51" value="" style="endArrow=none;html=1;rounded=0;strokeColor=#02e2f2;exitX=1;exitY=0.5;exitDx=0;exitDy=0;entryX=0;entryY=1;entryDx=0;entryDy=0;" edge="1" parent="1" source="35lLFvIV_164izUU4NRH-7" target="35lLFvIV_164izUU4NRH-17">
          <mxGeometry width="50" height="50" relative="1" as="geometry">
            <mxPoint x="440" y="460" as="sourcePoint" />
            <mxPoint x="560" y="410" as="targetPoint" />
          </mxGeometry>
        </mxCell>
        <mxCell id="35lLFvIV_164izUU4NRH-52" value="" style="endArrow=none;html=1;rounded=0;strokeColor=#02e2f2;entryX=0;entryY=0.5;entryDx=0;entryDy=0;" edge="1" parent="1" target="35lLFvIV_164izUU4NRH-18">
          <mxGeometry width="50" height="50" relative="1" as="geometry">
            <mxPoint x="320" y="130" as="sourcePoint" />
            <mxPoint x="570" y="420" as="targetPoint" />
          </mxGeometry>
        </mxCell>
        <mxCell id="35lLFvIV_164izUU4NRH-53" value="" style="endArrow=none;html=1;rounded=0;strokeColor=#02e2f2;exitX=1;exitY=0.5;exitDx=0;exitDy=0;entryX=0;entryY=0.5;entryDx=0;entryDy=0;" edge="1" parent="1" source="35lLFvIV_164izUU4NRH-8" target="35lLFvIV_164izUU4NRH-13">
          <mxGeometry width="50" height="50" relative="1" as="geometry">
            <mxPoint x="460" y="480" as="sourcePoint" />
            <mxPoint x="580" y="430" as="targetPoint" />
          </mxGeometry>
        </mxCell>
        <mxCell id="35lLFvIV_164izUU4NRH-54" value="" style="endArrow=none;html=1;rounded=0;strokeColor=#02e2f2;exitX=1;exitY=0.5;exitDx=0;exitDy=0;entryX=0;entryY=0.5;entryDx=0;entryDy=0;" edge="1" parent="1" source="35lLFvIV_164izUU4NRH-8" target="35lLFvIV_164izUU4NRH-14">
          <mxGeometry width="50" height="50" relative="1" as="geometry">
            <mxPoint x="470" y="490" as="sourcePoint" />
            <mxPoint x="590" y="440" as="targetPoint" />
          </mxGeometry>
        </mxCell>
        <mxCell id="35lLFvIV_164izUU4NRH-55" value="" style="endArrow=none;html=1;rounded=0;strokeColor=#02e2f2;exitX=1;exitY=0.5;exitDx=0;exitDy=0;entryX=0;entryY=0.5;entryDx=0;entryDy=0;" edge="1" parent="1" source="35lLFvIV_164izUU4NRH-8" target="35lLFvIV_164izUU4NRH-15">
          <mxGeometry width="50" height="50" relative="1" as="geometry">
            <mxPoint x="480" y="500" as="sourcePoint" />
            <mxPoint x="600" y="450" as="targetPoint" />
          </mxGeometry>
        </mxCell>
        <mxCell id="35lLFvIV_164izUU4NRH-56" value="" style="endArrow=none;html=1;rounded=0;strokeColor=#02e2f2;" edge="1" parent="1">
          <mxGeometry width="50" height="50" relative="1" as="geometry">
            <mxPoint x="320" y="210" as="sourcePoint" />
            <mxPoint x="440" y="380" as="targetPoint" />
          </mxGeometry>
        </mxCell>
        <mxCell id="35lLFvIV_164izUU4NRH-57" value="" style="endArrow=none;html=1;rounded=0;strokeColor=#02e2f2;entryX=0;entryY=0.5;entryDx=0;entryDy=0;" edge="1" parent="1" target="35lLFvIV_164izUU4NRH-17">
          <mxGeometry width="50" height="50" relative="1" as="geometry">
            <mxPoint x="320" y="210" as="sourcePoint" />
            <mxPoint x="620" y="470" as="targetPoint" />
          </mxGeometry>
        </mxCell>
        <mxCell id="35lLFvIV_164izUU4NRH-58" value="" style="endArrow=none;html=1;rounded=0;strokeColor=#02e2f2;exitX=1;exitY=0.5;exitDx=0;exitDy=0;" edge="1" parent="1" source="35lLFvIV_164izUU4NRH-8">
          <mxGeometry width="50" height="50" relative="1" as="geometry">
            <mxPoint x="510" y="530" as="sourcePoint" />
            <mxPoint x="440" y="540" as="targetPoint" />
          </mxGeometry>
        </mxCell>
        <mxCell id="35lLFvIV_164izUU4NRH-59" value="" style="endArrow=none;html=1;rounded=0;strokeColor=#02e2f2;exitX=1;exitY=0.5;exitDx=0;exitDy=0;entryX=0;entryY=0.5;entryDx=0;entryDy=0;" edge="1" parent="1" source="35lLFvIV_164izUU4NRH-9" target="35lLFvIV_164izUU4NRH-13">
          <mxGeometry width="50" height="50" relative="1" as="geometry">
            <mxPoint x="520" y="540" as="sourcePoint" />
            <mxPoint x="640" y="490" as="targetPoint" />
          </mxGeometry>
        </mxCell>
        <mxCell id="35lLFvIV_164izUU4NRH-60" value="" style="endArrow=none;html=1;rounded=0;strokeColor=#02e2f2;exitX=1;exitY=0.5;exitDx=0;exitDy=0;entryX=0;entryY=0.5;entryDx=0;entryDy=0;" edge="1" parent="1" source="35lLFvIV_164izUU4NRH-10" target="35lLFvIV_164izUU4NRH-13">
          <mxGeometry width="50" height="50" relative="1" as="geometry">
            <mxPoint x="530" y="550" as="sourcePoint" />
            <mxPoint x="650" y="500" as="targetPoint" />
          </mxGeometry>
        </mxCell>
        <mxCell id="35lLFvIV_164izUU4NRH-61" value="" style="endArrow=none;html=1;rounded=0;strokeColor=#02e2f2;entryX=0;entryY=0.5;entryDx=0;entryDy=0;" edge="1" parent="1" target="35lLFvIV_164izUU4NRH-14">
          <mxGeometry width="50" height="50" relative="1" as="geometry">
            <mxPoint x="320" y="290" as="sourcePoint" />
            <mxPoint x="660" y="510" as="targetPoint" />
          </mxGeometry>
        </mxCell>
        <mxCell id="35lLFvIV_164izUU4NRH-62" value="" style="endArrow=none;html=1;rounded=0;strokeColor=#02e2f2;exitX=1;exitY=0.5;exitDx=0;exitDy=0;entryX=0;entryY=0.5;entryDx=0;entryDy=0;" edge="1" parent="1" source="35lLFvIV_164izUU4NRH-9" target="35lLFvIV_164izUU4NRH-15">
          <mxGeometry width="50" height="50" relative="1" as="geometry">
            <mxPoint x="550" y="570" as="sourcePoint" />
            <mxPoint x="670" y="520" as="targetPoint" />
          </mxGeometry>
        </mxCell>
        <mxCell id="35lLFvIV_164izUU4NRH-63" value="" style="endArrow=none;html=1;rounded=0;strokeColor=#02e2f2;exitX=1;exitY=0.5;exitDx=0;exitDy=0;entryX=0;entryY=0.5;entryDx=0;entryDy=0;" edge="1" parent="1" source="35lLFvIV_164izUU4NRH-9" target="35lLFvIV_164izUU4NRH-16">
          <mxGeometry width="50" height="50" relative="1" as="geometry">
            <mxPoint x="560" y="580" as="sourcePoint" />
            <mxPoint x="680" y="530" as="targetPoint" />
          </mxGeometry>
        </mxCell>
        <mxCell id="35lLFvIV_164izUU4NRH-64" value="" style="endArrow=none;html=1;rounded=0;strokeColor=#02e2f2;exitX=1;exitY=0.5;exitDx=0;exitDy=0;" edge="1" parent="1" source="35lLFvIV_164izUU4NRH-9">
          <mxGeometry width="50" height="50" relative="1" as="geometry">
            <mxPoint x="570" y="590" as="sourcePoint" />
            <mxPoint x="440" y="460" as="targetPoint" />
          </mxGeometry>
        </mxCell>
        <mxCell id="35lLFvIV_164izUU4NRH-65" value="" style="endArrow=none;html=1;rounded=0;strokeColor=#02e2f2;exitX=1;exitY=0.5;exitDx=0;exitDy=0;" edge="1" parent="1" source="35lLFvIV_164izUU4NRH-9">
          <mxGeometry width="50" height="50" relative="1" as="geometry">
            <mxPoint x="580" y="600" as="sourcePoint" />
            <mxPoint x="440" y="540" as="targetPoint" />
          </mxGeometry>
        </mxCell>
        <mxCell id="35lLFvIV_164izUU4NRH-66" value="" style="endArrow=none;html=1;rounded=0;strokeColor=#02e2f2;exitX=1;exitY=0.5;exitDx=0;exitDy=0;" edge="1" parent="1" source="35lLFvIV_164izUU4NRH-10">
          <mxGeometry width="50" height="50" relative="1" as="geometry">
            <mxPoint x="590" y="610" as="sourcePoint" />
            <mxPoint x="440" y="210" as="targetPoint" />
          </mxGeometry>
        </mxCell>
        <mxCell id="35lLFvIV_164izUU4NRH-67" value="" style="endArrow=none;html=1;rounded=0;strokeColor=#02e2f2;exitX=1;exitY=0.5;exitDx=0;exitDy=0;" edge="1" parent="1" source="35lLFvIV_164izUU4NRH-10">
          <mxGeometry width="50" height="50" relative="1" as="geometry">
            <mxPoint x="600" y="620" as="sourcePoint" />
            <mxPoint x="440" y="290" as="targetPoint" />
          </mxGeometry>
        </mxCell>
        <mxCell id="35lLFvIV_164izUU4NRH-68" value="" style="endArrow=none;html=1;rounded=0;strokeColor=#02e2f2;entryX=0;entryY=0.5;entryDx=0;entryDy=0;" edge="1" parent="1" target="35lLFvIV_164izUU4NRH-16">
          <mxGeometry width="50" height="50" relative="1" as="geometry">
            <mxPoint x="320" y="380" as="sourcePoint" />
            <mxPoint x="730" y="580" as="targetPoint" />
          </mxGeometry>
        </mxCell>
        <mxCell id="35lLFvIV_164izUU4NRH-69" value="" style="endArrow=none;html=1;rounded=0;strokeColor=#02e2f2;exitX=1;exitY=0.5;exitDx=0;exitDy=0;entryX=0;entryY=0.5;entryDx=0;entryDy=0;" edge="1" parent="1" source="35lLFvIV_164izUU4NRH-10" target="35lLFvIV_164izUU4NRH-17">
          <mxGeometry width="50" height="50" relative="1" as="geometry">
            <mxPoint x="620" y="640" as="sourcePoint" />
            <mxPoint x="740" y="590" as="targetPoint" />
          </mxGeometry>
        </mxCell>
        <mxCell id="35lLFvIV_164izUU4NRH-70" value="" style="endArrow=none;html=1;rounded=0;strokeColor=#02e2f2;exitX=1;exitY=0.5;exitDx=0;exitDy=0;entryX=0;entryY=0.5;entryDx=0;entryDy=0;" edge="1" parent="1" source="35lLFvIV_164izUU4NRH-10" target="35lLFvIV_164izUU4NRH-18">
          <mxGeometry width="50" height="50" relative="1" as="geometry">
            <mxPoint x="630" y="650" as="sourcePoint" />
            <mxPoint x="750" y="600" as="targetPoint" />
          </mxGeometry>
        </mxCell>
        <mxCell id="35lLFvIV_164izUU4NRH-71" value="" style="endArrow=none;html=1;rounded=0;strokeColor=#02e2f2;exitX=1;exitY=0.5;exitDx=0;exitDy=0;entryX=0;entryY=0.5;entryDx=0;entryDy=0;" edge="1" parent="1" source="35lLFvIV_164izUU4NRH-11" target="35lLFvIV_164izUU4NRH-13">
          <mxGeometry width="50" height="50" relative="1" as="geometry">
            <mxPoint x="640" y="660" as="sourcePoint" />
            <mxPoint x="760" y="610" as="targetPoint" />
          </mxGeometry>
        </mxCell>
        <mxCell id="35lLFvIV_164izUU4NRH-72" value="" style="endArrow=none;html=1;rounded=0;strokeColor=#02e2f2;exitX=1;exitY=0.5;exitDx=0;exitDy=0;entryX=0;entryY=0.5;entryDx=0;entryDy=0;" edge="1" parent="1" source="35lLFvIV_164izUU4NRH-11" target="35lLFvIV_164izUU4NRH-14">
          <mxGeometry width="50" height="50" relative="1" as="geometry">
            <mxPoint x="650" y="670" as="sourcePoint" />
            <mxPoint x="770" y="620" as="targetPoint" />
          </mxGeometry>
        </mxCell>
        <mxCell id="35lLFvIV_164izUU4NRH-73" value="" style="endArrow=none;html=1;rounded=0;strokeColor=#02e2f2;exitX=1;exitY=0.5;exitDx=0;exitDy=0;entryX=0;entryY=0.5;entryDx=0;entryDy=0;" edge="1" parent="1" source="35lLFvIV_164izUU4NRH-11" target="35lLFvIV_164izUU4NRH-15">
          <mxGeometry width="50" height="50" relative="1" as="geometry">
            <mxPoint x="660" y="680" as="sourcePoint" />
            <mxPoint x="780" y="630" as="targetPoint" />
          </mxGeometry>
        </mxCell>
        <mxCell id="35lLFvIV_164izUU4NRH-74" value="" style="endArrow=none;html=1;rounded=0;strokeColor=#02e2f2;exitX=1;exitY=0.5;exitDx=0;exitDy=0;entryX=0;entryY=0.5;entryDx=0;entryDy=0;" edge="1" parent="1" source="35lLFvIV_164izUU4NRH-11" target="35lLFvIV_164izUU4NRH-16">
          <mxGeometry width="50" height="50" relative="1" as="geometry">
            <mxPoint x="670" y="690" as="sourcePoint" />
            <mxPoint x="790" y="640" as="targetPoint" />
          </mxGeometry>
        </mxCell>
        <mxCell id="35lLFvIV_164izUU4NRH-75" value="" style="endArrow=none;html=1;rounded=0;strokeColor=#02e2f2;" edge="1" parent="1">
          <mxGeometry width="50" height="50" relative="1" as="geometry">
            <mxPoint x="320" y="460" as="sourcePoint" />
            <mxPoint x="440" y="460" as="targetPoint" />
          </mxGeometry>
        </mxCell>
        <mxCell id="35lLFvIV_164izUU4NRH-76" value="" style="endArrow=none;html=1;rounded=0;strokeColor=#02e2f2;" edge="1" parent="1">
          <mxGeometry width="50" height="50" relative="1" as="geometry">
            <mxPoint x="320" y="460" as="sourcePoint" />
            <mxPoint x="440" y="540" as="targetPoint" />
          </mxGeometry>
        </mxCell>
        <mxCell id="35lLFvIV_164izUU4NRH-77" value="" style="endArrow=none;html=1;rounded=0;strokeColor=#02e2f2;exitX=1;exitY=0.5;exitDx=0;exitDy=0;entryX=0;entryY=0.5;entryDx=0;entryDy=0;" edge="1" parent="1" source="35lLFvIV_164izUU4NRH-12" target="35lLFvIV_164izUU4NRH-13">
          <mxGeometry width="50" height="50" relative="1" as="geometry">
            <mxPoint x="700" y="720" as="sourcePoint" />
            <mxPoint x="820" y="670" as="targetPoint" />
          </mxGeometry>
        </mxCell>
        <mxCell id="35lLFvIV_164izUU4NRH-78" value="" style="endArrow=none;html=1;rounded=0;strokeColor=#02e2f2;exitX=1;exitY=0.5;exitDx=0;exitDy=0;entryX=0;entryY=0.5;entryDx=0;entryDy=0;" edge="1" parent="1" source="35lLFvIV_164izUU4NRH-12" target="35lLFvIV_164izUU4NRH-14">
          <mxGeometry width="50" height="50" relative="1" as="geometry">
            <mxPoint x="710" y="730" as="sourcePoint" />
            <mxPoint x="830" y="680" as="targetPoint" />
          </mxGeometry>
        </mxCell>
        <mxCell id="35lLFvIV_164izUU4NRH-79" value="" style="endArrow=none;html=1;rounded=0;strokeColor=#02e2f2;exitX=1;exitY=0.5;exitDx=0;exitDy=0;entryX=0;entryY=0.5;entryDx=0;entryDy=0;" edge="1" parent="1" source="35lLFvIV_164izUU4NRH-12" target="35lLFvIV_164izUU4NRH-15">
          <mxGeometry width="50" height="50" relative="1" as="geometry">
            <mxPoint x="720" y="740" as="sourcePoint" />
            <mxPoint x="840" y="690" as="targetPoint" />
          </mxGeometry>
        </mxCell>
        <mxCell id="35lLFvIV_164izUU4NRH-80" value="" style="endArrow=none;html=1;rounded=0;strokeColor=#02e2f2;entryX=0;entryY=0.5;entryDx=0;entryDy=0;" edge="1" parent="1" target="35lLFvIV_164izUU4NRH-16">
          <mxGeometry width="50" height="50" relative="1" as="geometry">
            <mxPoint x="320" y="540" as="sourcePoint" />
            <mxPoint x="850" y="700" as="targetPoint" />
          </mxGeometry>
        </mxCell>
        <mxCell id="35lLFvIV_164izUU4NRH-81" value="" style="endArrow=none;html=1;rounded=0;strokeColor=#02e2f2;exitX=1;exitY=0.5;exitDx=0;exitDy=0;" edge="1" parent="1" source="35lLFvIV_164izUU4NRH-12">
          <mxGeometry width="50" height="50" relative="1" as="geometry">
            <mxPoint x="740" y="760" as="sourcePoint" />
            <mxPoint x="440" y="460" as="targetPoint" />
          </mxGeometry>
        </mxCell>
        <mxCell id="35lLFvIV_164izUU4NRH-82" value="" style="endArrow=none;html=1;rounded=0;strokeColor=#02e2f2;entryX=0;entryY=0.5;entryDx=0;entryDy=0;" edge="1" parent="1" target="35lLFvIV_164izUU4NRH-18">
          <mxGeometry width="50" height="50" relative="1" as="geometry">
            <mxPoint x="320" y="540" as="sourcePoint" />
            <mxPoint x="870" y="720" as="targetPoint" />
          </mxGeometry>
        </mxCell>
        <mxCell id="35lLFvIV_164izUU4NRH-83" value="" style="endArrow=none;html=1;rounded=0;strokeColor=#02e2f2;exitX=1;exitY=0.5;exitDx=0;exitDy=0;entryX=0;entryY=0.5;entryDx=0;entryDy=0;" edge="1" parent="1" source="35lLFvIV_164izUU4NRH-13" target="35lLFvIV_164izUU4NRH-19">
          <mxGeometry width="50" height="50" relative="1" as="geometry">
            <mxPoint x="760" y="780" as="sourcePoint" />
            <mxPoint x="880" y="730" as="targetPoint" />
          </mxGeometry>
        </mxCell>
        <mxCell id="35lLFvIV_164izUU4NRH-84" value="" style="endArrow=none;html=1;rounded=0;strokeColor=#02e2f2;exitX=0;exitY=0.5;exitDx=0;exitDy=0;entryX=1;entryY=0.5;entryDx=0;entryDy=0;" edge="1" parent="1" source="35lLFvIV_164izUU4NRH-20" target="35lLFvIV_164izUU4NRH-14">
          <mxGeometry width="50" height="50" relative="1" as="geometry">
            <mxPoint x="770" y="790" as="sourcePoint" />
            <mxPoint x="890" y="740" as="targetPoint" />
          </mxGeometry>
        </mxCell>
        <mxCell id="35lLFvIV_164izUU4NRH-85" value="" style="endArrow=none;html=1;rounded=0;strokeColor=#02e2f2;exitX=1;exitY=0.5;exitDx=0;exitDy=0;entryX=0;entryY=0.5;entryDx=0;entryDy=0;" edge="1" parent="1" source="35lLFvIV_164izUU4NRH-15" target="35lLFvIV_164izUU4NRH-21">
          <mxGeometry width="50" height="50" relative="1" as="geometry">
            <mxPoint x="580" y="630" as="sourcePoint" />
            <mxPoint x="700" y="580" as="targetPoint" />
          </mxGeometry>
        </mxCell>
        <mxCell id="35lLFvIV_164izUU4NRH-86" value="" style="endArrow=none;html=1;rounded=0;strokeColor=#02e2f2;exitX=1;exitY=0.5;exitDx=0;exitDy=0;entryX=0;entryY=0.5;entryDx=0;entryDy=0;" edge="1" parent="1" source="35lLFvIV_164izUU4NRH-13" target="35lLFvIV_164izUU4NRH-20">
          <mxGeometry width="50" height="50" relative="1" as="geometry">
            <mxPoint x="530" y="610" as="sourcePoint" />
            <mxPoint x="650" y="560" as="targetPoint" />
          </mxGeometry>
        </mxCell>
        <mxCell id="35lLFvIV_164izUU4NRH-87" value="" style="endArrow=none;html=1;rounded=0;strokeColor=#02e2f2;entryX=0;entryY=0.5;entryDx=0;entryDy=0;" edge="1" parent="1" target="35lLFvIV_164izUU4NRH-21">
          <mxGeometry width="50" height="50" relative="1" as="geometry">
            <mxPoint x="480" y="130" as="sourcePoint" />
            <mxPoint x="660" y="570" as="targetPoint" />
          </mxGeometry>
        </mxCell>
        <mxCell id="35lLFvIV_164izUU4NRH-88" value="" style="endArrow=none;html=1;rounded=0;strokeColor=#02e2f2;exitX=0;exitY=0.5;exitDx=0;exitDy=0;entryX=1;entryY=0.5;entryDx=0;entryDy=0;" edge="1" parent="1" source="35lLFvIV_164izUU4NRH-21" target="35lLFvIV_164izUU4NRH-14">
          <mxGeometry width="50" height="50" relative="1" as="geometry">
            <mxPoint x="520" y="610" as="sourcePoint" />
            <mxPoint x="640" y="560" as="targetPoint" />
          </mxGeometry>
        </mxCell>
        <mxCell id="35lLFvIV_164izUU4NRH-89" value="" style="endArrow=none;html=1;rounded=0;strokeColor=#02e2f2;exitX=1;exitY=0.5;exitDx=0;exitDy=0;entryX=0;entryY=0.5;entryDx=0;entryDy=0;" edge="1" parent="1" source="35lLFvIV_164izUU4NRH-14" target="35lLFvIV_164izUU4NRH-19">
          <mxGeometry width="50" height="50" relative="1" as="geometry">
            <mxPoint x="600" y="530" as="sourcePoint" />
            <mxPoint x="720" y="480" as="targetPoint" />
          </mxGeometry>
        </mxCell>
        <mxCell id="35lLFvIV_164izUU4NRH-90" value="" style="endArrow=none;html=1;rounded=0;strokeColor=#02e2f2;exitX=1;exitY=0.5;exitDx=0;exitDy=0;entryX=0;entryY=0.5;entryDx=0;entryDy=0;" edge="1" parent="1" source="35lLFvIV_164izUU4NRH-15" target="35lLFvIV_164izUU4NRH-19">
          <mxGeometry width="50" height="50" relative="1" as="geometry">
            <mxPoint x="600" y="70" as="sourcePoint" />
            <mxPoint x="720" y="20" as="targetPoint" />
          </mxGeometry>
        </mxCell>
        <mxCell id="35lLFvIV_164izUU4NRH-91" value="" style="endArrow=none;html=1;rounded=0;strokeColor=#02e2f2;" edge="1" parent="1">
          <mxGeometry width="50" height="50" relative="1" as="geometry">
            <mxPoint x="480" y="290" as="sourcePoint" />
            <mxPoint x="600" y="300" as="targetPoint" />
          </mxGeometry>
        </mxCell>
        <mxCell id="35lLFvIV_164izUU4NRH-92" value="" style="endArrow=none;html=1;rounded=0;strokeColor=#02e2f2;exitX=1;exitY=0.5;exitDx=0;exitDy=0;" edge="1" parent="1" source="35lLFvIV_164izUU4NRH-16">
          <mxGeometry width="50" height="50" relative="1" as="geometry">
            <mxPoint x="620" y="70" as="sourcePoint" />
            <mxPoint x="600" y="210" as="targetPoint" />
          </mxGeometry>
        </mxCell>
        <mxCell id="35lLFvIV_164izUU4NRH-93" value="" style="endArrow=none;html=1;rounded=0;strokeColor=#02e2f2;exitX=1;exitY=0.5;exitDx=0;exitDy=0;entryX=0;entryY=0.5;entryDx=0;entryDy=0;" edge="1" parent="1" source="35lLFvIV_164izUU4NRH-16" target="35lLFvIV_164izUU4NRH-20">
          <mxGeometry width="50" height="50" relative="1" as="geometry">
            <mxPoint x="630" y="90" as="sourcePoint" />
            <mxPoint x="750" y="40" as="targetPoint" />
          </mxGeometry>
        </mxCell>
        <mxCell id="35lLFvIV_164izUU4NRH-94" value="" style="endArrow=none;html=1;rounded=0;strokeColor=#02e2f2;exitX=1;exitY=0.5;exitDx=0;exitDy=0;entryX=0;entryY=0.5;entryDx=0;entryDy=0;" edge="1" parent="1" source="35lLFvIV_164izUU4NRH-16" target="35lLFvIV_164izUU4NRH-21">
          <mxGeometry width="50" height="50" relative="1" as="geometry">
            <mxPoint x="650" y="90" as="sourcePoint" />
            <mxPoint x="770" y="40" as="targetPoint" />
          </mxGeometry>
        </mxCell>
        <mxCell id="35lLFvIV_164izUU4NRH-95" value="" style="endArrow=none;html=1;rounded=0;strokeColor=#02e2f2;exitX=1;exitY=0.5;exitDx=0;exitDy=0;entryX=0;entryY=0.5;entryDx=0;entryDy=0;" edge="1" parent="1" source="35lLFvIV_164izUU4NRH-17" target="35lLFvIV_164izUU4NRH-19">
          <mxGeometry width="50" height="50" relative="1" as="geometry">
            <mxPoint x="640" y="30" as="sourcePoint" />
            <mxPoint x="760" y="-20" as="targetPoint" />
          </mxGeometry>
        </mxCell>
        <mxCell id="35lLFvIV_164izUU4NRH-96" value="" style="endArrow=none;html=1;rounded=0;strokeColor=#02e2f2;exitX=1;exitY=0.5;exitDx=0;exitDy=0;entryX=0;entryY=0.5;entryDx=0;entryDy=0;" edge="1" parent="1" source="35lLFvIV_164izUU4NRH-17" target="35lLFvIV_164izUU4NRH-20">
          <mxGeometry width="50" height="50" relative="1" as="geometry">
            <mxPoint x="610" y="40" as="sourcePoint" />
            <mxPoint x="730" y="-10" as="targetPoint" />
          </mxGeometry>
        </mxCell>
        <mxCell id="35lLFvIV_164izUU4NRH-97" value="" style="endArrow=none;html=1;rounded=0;strokeColor=#02e2f2;exitX=1;exitY=0.5;exitDx=0;exitDy=0;entryX=0;entryY=0.5;entryDx=0;entryDy=0;" edge="1" parent="1" source="35lLFvIV_164izUU4NRH-17" target="35lLFvIV_164izUU4NRH-21">
          <mxGeometry width="50" height="50" relative="1" as="geometry">
            <mxPoint x="650" y="90" as="sourcePoint" />
            <mxPoint x="770" y="40" as="targetPoint" />
          </mxGeometry>
        </mxCell>
        <mxCell id="35lLFvIV_164izUU4NRH-98" value="" style="endArrow=none;html=1;rounded=0;strokeColor=#02e2f2;exitX=1;exitY=0.5;exitDx=0;exitDy=0;" edge="1" parent="1" source="35lLFvIV_164izUU4NRH-18">
          <mxGeometry width="50" height="50" relative="1" as="geometry">
            <mxPoint x="650" y="60" as="sourcePoint" />
            <mxPoint x="600" y="210" as="targetPoint" />
          </mxGeometry>
        </mxCell>
        <mxCell id="35lLFvIV_164izUU4NRH-99" value="" style="endArrow=none;html=1;rounded=0;strokeColor=#02e2f2;exitX=1;exitY=0.5;exitDx=0;exitDy=0;entryX=0;entryY=0.5;entryDx=0;entryDy=0;" edge="1" parent="1" source="35lLFvIV_164izUU4NRH-18" target="35lLFvIV_164izUU4NRH-20">
          <mxGeometry width="50" height="50" relative="1" as="geometry">
            <mxPoint x="600" y="80" as="sourcePoint" />
            <mxPoint x="720" y="30" as="targetPoint" />
          </mxGeometry>
        </mxCell>
        <mxCell id="35lLFvIV_164izUU4NRH-100" value="" style="endArrow=none;html=1;rounded=0;strokeColor=#02e2f2;exitX=1;exitY=0.5;exitDx=0;exitDy=0;entryX=0;entryY=0.5;entryDx=0;entryDy=0;" edge="1" parent="1" source="35lLFvIV_164izUU4NRH-18" target="35lLFvIV_164izUU4NRH-21">
          <mxGeometry width="50" height="50" relative="1" as="geometry">
            <mxPoint x="650" y="70" as="sourcePoint" />
            <mxPoint x="770" y="20" as="targetPoint" />
          </mxGeometry>
        </mxCell>
        <mxCell id="35lLFvIV_164izUU4NRH-101" value="" style="endArrow=none;html=1;rounded=0;strokeColor=#02e2f2;exitX=1;exitY=0.5;exitDx=0;exitDy=0;entryX=0;entryY=0.5;entryDx=0;entryDy=0;" edge="1" parent="1" source="35lLFvIV_164izUU4NRH-19" target="35lLFvIV_164izUU4NRH-22">
          <mxGeometry width="50" height="50" relative="1" as="geometry">
            <mxPoint x="590" y="80" as="sourcePoint" />
            <mxPoint x="710" y="30" as="targetPoint" />
          </mxGeometry>
        </mxCell>
        <mxCell id="35lLFvIV_164izUU4NRH-102" value="" style="endArrow=none;html=1;rounded=0;strokeColor=#02e2f2;exitX=1;exitY=0.5;exitDx=0;exitDy=0;" edge="1" parent="1" source="35lLFvIV_164izUU4NRH-20">
          <mxGeometry width="50" height="50" relative="1" as="geometry">
            <mxPoint x="650" y="50" as="sourcePoint" />
            <mxPoint x="720" y="300" as="targetPoint" />
          </mxGeometry>
        </mxCell>
        <mxCell id="35lLFvIV_164izUU4NRH-103" value="" style="endArrow=none;html=1;rounded=0;strokeColor=#02e2f2;exitX=1;exitY=0.5;exitDx=0;exitDy=0;entryX=0;entryY=0.5;entryDx=0;entryDy=0;" edge="1" parent="1" source="35lLFvIV_164izUU4NRH-21" target="35lLFvIV_164izUU4NRH-22">
          <mxGeometry width="50" height="50" relative="1" as="geometry">
            <mxPoint x="700" y="160" as="sourcePoint" />
            <mxPoint x="820" y="110" as="targetPoint" />
          </mxGeometry>
        </mxCell>
        <mxCell id="35lLFvIV_164izUU4NRH-104" value="" style="rounded=1;whiteSpace=wrap;html=1;fillColor=#c8eaf9;strokeWidth=2;strokeColor=#10739e;gradientColor=none;fillStyle=auto;opacity=20;" vertex="1" parent="1">
          <mxGeometry x="240" y="50" width="420" height="540" as="geometry" />
        </mxCell>
        <mxCell id="35lLFvIV_164izUU4NRH-106" value="&lt;font face=&quot;Verdana&quot; size=&quot;1&quot; style=&quot;&quot;&gt;&lt;b style=&quot;font-size: 16px;&quot;&gt;Hidden Layers&lt;/b&gt;&lt;/font&gt;" style="text;html=1;align=center;verticalAlign=middle;resizable=0;points=[];autosize=1;strokeColor=none;fillColor=none;" vertex="1" parent="1">
          <mxGeometry x="365" y="60" width="150" height="30" as="geometry" />
        </mxCell>
        <mxCell id="35lLFvIV_164izUU4NRH-107" value="" style="rounded=1;whiteSpace=wrap;html=1;fillColor=#b8f2b0;strokeWidth=2;strokeColor=#10739e;gradientColor=none;fillStyle=auto;opacity=20;" vertex="1" parent="1">
          <mxGeometry x="90" y="60" width="110" height="490" as="geometry" />
        </mxCell>
        <mxCell id="35lLFvIV_164izUU4NRH-108" value="&lt;font face=&quot;Verdana&quot; style=&quot;font-size: 15px;&quot;&gt;&lt;b style=&quot;&quot;&gt;Input&lt;/b&gt;&lt;/font&gt;&lt;div style=&quot;font-size: 15px;&quot;&gt;&lt;font face=&quot;Verdana&quot; style=&quot;font-size: 15px;&quot;&gt;&lt;b style=&quot;&quot;&gt;Layer&lt;/b&gt;&lt;/font&gt;&lt;/div&gt;" style="text;html=1;align=center;verticalAlign=middle;resizable=0;points=[];autosize=1;strokeColor=none;fillColor=none;rotation=0;" vertex="1" parent="1">
          <mxGeometry x="110" y="80" width="70" height="50" as="geometry" />
        </mxCell>
        <mxCell id="35lLFvIV_164izUU4NRH-109" value="&lt;font face=&quot;Verdana&quot; style=&quot;font-size: 15px;&quot;&gt;&lt;b style=&quot;&quot;&gt;Output&lt;/b&gt;&lt;/font&gt;&lt;div style=&quot;font-size: 15px;&quot;&gt;&lt;font face=&quot;Verdana&quot; style=&quot;font-size: 15px;&quot;&gt;&lt;b style=&quot;&quot;&gt;Layer&lt;/b&gt;&lt;/font&gt;&lt;/div&gt;" style="text;html=1;align=center;verticalAlign=middle;resizable=0;points=[];autosize=1;strokeColor=none;fillColor=none;rotation=0;" vertex="1" parent="1">
          <mxGeometry x="695" y="80" width="80" height="50" as="geometry" />
        </mxCell>
        <mxCell id="35lLFvIV_164izUU4NRH-110" value="" style="rounded=1;whiteSpace=wrap;html=1;fillColor=#f7cfc5;strokeWidth=2;strokeColor=#10739e;gradientColor=none;fillStyle=auto;opacity=20;" vertex="1" parent="1">
          <mxGeometry x="680" y="60" width="110" height="490" as="geometry" />
        </mxCell>
      </root>
    </mxGraphModel>
  </diagram>
  <diagram id="-UfUSiLUidl2_MZabQ6q" name="cnn_convolution">
    <mxGraphModel dx="1434" dy="780" grid="1" gridSize="10" guides="1" tooltips="1" connect="1" arrows="1" fold="1" page="1" pageScale="1" pageWidth="827" pageHeight="1169" math="1" shadow="0">
      <root>
        <mxCell id="0" />
        <mxCell id="1" parent="0" />
        <mxCell id="fRVByirt0AVNoMKBRCzd-1" value="" style="shape=table;startSize=0;container=1;collapsible=0;childLayout=tableLayout;strokeWidth=2;" vertex="1" parent="1">
          <mxGeometry x="114" y="160" width="300" height="120" as="geometry" />
        </mxCell>
        <mxCell id="fRVByirt0AVNoMKBRCzd-2" value="" style="shape=tableRow;horizontal=0;startSize=0;swimlaneHead=0;swimlaneBody=0;strokeColor=inherit;top=0;left=0;bottom=0;right=0;collapsible=0;dropTarget=0;fillColor=none;points=[[0,0.5],[1,0.5]];portConstraint=eastwest;" vertex="1" parent="fRVByirt0AVNoMKBRCzd-1">
          <mxGeometry width="300" height="40" as="geometry" />
        </mxCell>
        <mxCell id="fRVByirt0AVNoMKBRCzd-3" value="67" style="shape=partialRectangle;html=1;whiteSpace=wrap;connectable=0;strokeColor=inherit;overflow=hidden;fillColor=none;top=0;left=0;bottom=0;right=0;pointerEvents=1;" vertex="1" parent="fRVByirt0AVNoMKBRCzd-2">
          <mxGeometry width="60" height="40" as="geometry">
            <mxRectangle width="60" height="40" as="alternateBounds" />
          </mxGeometry>
        </mxCell>
        <mxCell id="fRVByirt0AVNoMKBRCzd-4" value="65" style="shape=partialRectangle;html=1;whiteSpace=wrap;connectable=0;strokeColor=inherit;overflow=hidden;fillColor=none;top=0;left=0;bottom=0;right=0;pointerEvents=1;" vertex="1" parent="fRVByirt0AVNoMKBRCzd-2">
          <mxGeometry x="60" width="60" height="40" as="geometry">
            <mxRectangle width="60" height="40" as="alternateBounds" />
          </mxGeometry>
        </mxCell>
        <mxCell id="fRVByirt0AVNoMKBRCzd-5" value="60" style="shape=partialRectangle;html=1;whiteSpace=wrap;connectable=0;strokeColor=inherit;overflow=hidden;fillColor=none;top=0;left=0;bottom=0;right=0;pointerEvents=1;" vertex="1" parent="fRVByirt0AVNoMKBRCzd-2">
          <mxGeometry x="120" width="60" height="40" as="geometry">
            <mxRectangle width="60" height="40" as="alternateBounds" />
          </mxGeometry>
        </mxCell>
        <mxCell id="fRVByirt0AVNoMKBRCzd-6" value="62" style="shape=partialRectangle;html=1;whiteSpace=wrap;connectable=0;strokeColor=inherit;overflow=hidden;fillColor=none;top=0;left=0;bottom=0;right=0;pointerEvents=1;" vertex="1" parent="fRVByirt0AVNoMKBRCzd-2">
          <mxGeometry x="180" width="60" height="40" as="geometry">
            <mxRectangle width="60" height="40" as="alternateBounds" />
          </mxGeometry>
        </mxCell>
        <mxCell id="fRVByirt0AVNoMKBRCzd-7" value="63" style="shape=partialRectangle;html=1;whiteSpace=wrap;connectable=0;strokeColor=inherit;overflow=hidden;fillColor=none;top=0;left=0;bottom=0;right=0;pointerEvents=1;" vertex="1" parent="fRVByirt0AVNoMKBRCzd-2">
          <mxGeometry x="240" width="60" height="40" as="geometry">
            <mxRectangle width="60" height="40" as="alternateBounds" />
          </mxGeometry>
        </mxCell>
        <mxCell id="fRVByirt0AVNoMKBRCzd-8" value="" style="shape=tableRow;horizontal=0;startSize=0;swimlaneHead=0;swimlaneBody=0;strokeColor=inherit;top=0;left=0;bottom=0;right=0;collapsible=0;dropTarget=0;fillColor=none;points=[[0,0.5],[1,0.5]];portConstraint=eastwest;" vertex="1" parent="fRVByirt0AVNoMKBRCzd-1">
          <mxGeometry y="40" width="300" height="40" as="geometry" />
        </mxCell>
        <mxCell id="fRVByirt0AVNoMKBRCzd-9" value="14" style="shape=partialRectangle;html=1;whiteSpace=wrap;connectable=0;strokeColor=inherit;overflow=hidden;fillColor=none;top=0;left=0;bottom=0;right=0;pointerEvents=1;" vertex="1" parent="fRVByirt0AVNoMKBRCzd-8">
          <mxGeometry width="60" height="40" as="geometry">
            <mxRectangle width="60" height="40" as="alternateBounds" />
          </mxGeometry>
        </mxCell>
        <mxCell id="fRVByirt0AVNoMKBRCzd-10" value="14" style="shape=partialRectangle;html=1;whiteSpace=wrap;connectable=0;strokeColor=inherit;overflow=hidden;fillColor=none;top=0;left=0;bottom=0;right=0;pointerEvents=1;" vertex="1" parent="fRVByirt0AVNoMKBRCzd-8">
          <mxGeometry x="60" width="60" height="40" as="geometry">
            <mxRectangle width="60" height="40" as="alternateBounds" />
          </mxGeometry>
        </mxCell>
        <mxCell id="fRVByirt0AVNoMKBRCzd-11" value="13" style="shape=partialRectangle;html=1;whiteSpace=wrap;connectable=0;strokeColor=inherit;overflow=hidden;fillColor=none;top=0;left=0;bottom=0;right=0;pointerEvents=1;" vertex="1" parent="fRVByirt0AVNoMKBRCzd-8">
          <mxGeometry x="120" width="60" height="40" as="geometry">
            <mxRectangle width="60" height="40" as="alternateBounds" />
          </mxGeometry>
        </mxCell>
        <mxCell id="fRVByirt0AVNoMKBRCzd-12" value="15" style="shape=partialRectangle;html=1;whiteSpace=wrap;connectable=0;strokeColor=inherit;overflow=hidden;fillColor=none;top=0;left=0;bottom=0;right=0;pointerEvents=1;" vertex="1" parent="fRVByirt0AVNoMKBRCzd-8">
          <mxGeometry x="180" width="60" height="40" as="geometry">
            <mxRectangle width="60" height="40" as="alternateBounds" />
          </mxGeometry>
        </mxCell>
        <mxCell id="fRVByirt0AVNoMKBRCzd-13" value="14" style="shape=partialRectangle;html=1;whiteSpace=wrap;connectable=0;strokeColor=inherit;overflow=hidden;fillColor=none;top=0;left=0;bottom=0;right=0;pointerEvents=1;" vertex="1" parent="fRVByirt0AVNoMKBRCzd-8">
          <mxGeometry x="240" width="60" height="40" as="geometry">
            <mxRectangle width="60" height="40" as="alternateBounds" />
          </mxGeometry>
        </mxCell>
        <mxCell id="fRVByirt0AVNoMKBRCzd-14" value="" style="shape=tableRow;horizontal=0;startSize=0;swimlaneHead=0;swimlaneBody=0;strokeColor=inherit;top=0;left=0;bottom=0;right=0;collapsible=0;dropTarget=0;fillColor=none;points=[[0,0.5],[1,0.5]];portConstraint=eastwest;" vertex="1" parent="fRVByirt0AVNoMKBRCzd-1">
          <mxGeometry y="80" width="300" height="40" as="geometry" />
        </mxCell>
        <mxCell id="fRVByirt0AVNoMKBRCzd-15" value="37" style="shape=partialRectangle;html=1;whiteSpace=wrap;connectable=0;strokeColor=inherit;overflow=hidden;fillColor=none;top=0;left=0;bottom=0;right=0;pointerEvents=1;" vertex="1" parent="fRVByirt0AVNoMKBRCzd-14">
          <mxGeometry width="60" height="40" as="geometry">
            <mxRectangle width="60" height="40" as="alternateBounds" />
          </mxGeometry>
        </mxCell>
        <mxCell id="fRVByirt0AVNoMKBRCzd-16" value="36.8" style="shape=partialRectangle;html=1;whiteSpace=wrap;connectable=0;strokeColor=inherit;overflow=hidden;fillColor=none;top=0;left=0;bottom=0;right=0;pointerEvents=1;" vertex="1" parent="fRVByirt0AVNoMKBRCzd-14">
          <mxGeometry x="60" width="60" height="40" as="geometry">
            <mxRectangle width="60" height="40" as="alternateBounds" />
          </mxGeometry>
        </mxCell>
        <mxCell id="fRVByirt0AVNoMKBRCzd-17" value="36.5" style="shape=partialRectangle;html=1;whiteSpace=wrap;connectable=0;strokeColor=inherit;overflow=hidden;fillColor=none;top=0;left=0;bottom=0;right=0;pointerEvents=1;" vertex="1" parent="fRVByirt0AVNoMKBRCzd-14">
          <mxGeometry x="120" width="60" height="40" as="geometry">
            <mxRectangle width="60" height="40" as="alternateBounds" />
          </mxGeometry>
        </mxCell>
        <mxCell id="fRVByirt0AVNoMKBRCzd-18" value="36.7" style="shape=partialRectangle;html=1;whiteSpace=wrap;connectable=0;strokeColor=inherit;overflow=hidden;fillColor=none;top=0;left=0;bottom=0;right=0;pointerEvents=1;" vertex="1" parent="fRVByirt0AVNoMKBRCzd-14">
          <mxGeometry x="180" width="60" height="40" as="geometry">
            <mxRectangle width="60" height="40" as="alternateBounds" />
          </mxGeometry>
        </mxCell>
        <mxCell id="fRVByirt0AVNoMKBRCzd-19" value="37.1" style="shape=partialRectangle;html=1;whiteSpace=wrap;connectable=0;strokeColor=inherit;overflow=hidden;fillColor=none;top=0;left=0;bottom=0;right=0;pointerEvents=1;" vertex="1" parent="fRVByirt0AVNoMKBRCzd-14">
          <mxGeometry x="240" width="60" height="40" as="geometry">
            <mxRectangle width="60" height="40" as="alternateBounds" />
          </mxGeometry>
        </mxCell>
        <mxCell id="fRVByirt0AVNoMKBRCzd-20" value="" style="endArrow=classic;html=1;rounded=0;strokeWidth=2;" edge="1" parent="1">
          <mxGeometry width="50" height="50" relative="1" as="geometry">
            <mxPoint x="94" y="130" as="sourcePoint" />
            <mxPoint x="204" y="130" as="targetPoint" />
          </mxGeometry>
        </mxCell>
        <mxCell id="fRVByirt0AVNoMKBRCzd-21" value="Hour Axis" style="text;html=1;align=center;verticalAlign=middle;resizable=0;points=[];autosize=1;strokeColor=none;fillColor=none;" vertex="1" parent="1">
          <mxGeometry x="134" y="100" width="70" height="30" as="geometry" />
        </mxCell>
        <mxCell id="fRVByirt0AVNoMKBRCzd-23" value="&lt;font style=&quot;font-size: 14px;&quot;&gt;&lt;b&gt;Raw Data&lt;/b&gt;&lt;/font&gt;" style="text;html=1;align=center;verticalAlign=middle;resizable=0;points=[];autosize=1;strokeColor=none;fillColor=none;" vertex="1" parent="1">
          <mxGeometry x="19" y="188" width="90" height="30" as="geometry" />
        </mxCell>
        <mxCell id="fRVByirt0AVNoMKBRCzd-24" value="" style="rounded=1;whiteSpace=wrap;html=1;fillColor=none;strokeColor=#28e6d9;strokeWidth=3;" vertex="1" parent="1">
          <mxGeometry x="159" y="140" width="150" height="160" as="geometry" />
        </mxCell>
        <mxCell id="fRVByirt0AVNoMKBRCzd-25" value="" style="shape=table;startSize=0;container=1;collapsible=0;childLayout=tableLayout;strokeWidth=2;" vertex="1" parent="1">
          <mxGeometry x="174" y="390" width="120" height="120" as="geometry" />
        </mxCell>
        <mxCell id="fRVByirt0AVNoMKBRCzd-26" value="" style="shape=tableRow;horizontal=0;startSize=0;swimlaneHead=0;swimlaneBody=0;strokeColor=inherit;top=0;left=0;bottom=0;right=0;collapsible=0;dropTarget=0;fillColor=none;points=[[0,0.5],[1,0.5]];portConstraint=eastwest;" vertex="1" parent="fRVByirt0AVNoMKBRCzd-25">
          <mxGeometry width="120" height="40" as="geometry" />
        </mxCell>
        <mxCell id="fRVByirt0AVNoMKBRCzd-27" value="0" style="shape=partialRectangle;html=1;whiteSpace=wrap;connectable=0;strokeColor=inherit;overflow=hidden;fillColor=none;top=0;left=0;bottom=0;right=0;pointerEvents=1;" vertex="1" parent="fRVByirt0AVNoMKBRCzd-26">
          <mxGeometry width="60" height="40" as="geometry">
            <mxRectangle width="60" height="40" as="alternateBounds" />
          </mxGeometry>
        </mxCell>
        <mxCell id="fRVByirt0AVNoMKBRCzd-28" value="1" style="shape=partialRectangle;html=1;whiteSpace=wrap;connectable=0;strokeColor=inherit;overflow=hidden;fillColor=none;top=0;left=0;bottom=0;right=0;pointerEvents=1;" vertex="1" parent="fRVByirt0AVNoMKBRCzd-26">
          <mxGeometry x="60" width="60" height="40" as="geometry">
            <mxRectangle width="60" height="40" as="alternateBounds" />
          </mxGeometry>
        </mxCell>
        <mxCell id="fRVByirt0AVNoMKBRCzd-29" value="" style="shape=tableRow;horizontal=0;startSize=0;swimlaneHead=0;swimlaneBody=0;strokeColor=inherit;top=0;left=0;bottom=0;right=0;collapsible=0;dropTarget=0;fillColor=none;points=[[0,0.5],[1,0.5]];portConstraint=eastwest;" vertex="1" parent="fRVByirt0AVNoMKBRCzd-25">
          <mxGeometry y="40" width="120" height="40" as="geometry" />
        </mxCell>
        <mxCell id="fRVByirt0AVNoMKBRCzd-30" value="1" style="shape=partialRectangle;html=1;whiteSpace=wrap;connectable=0;strokeColor=inherit;overflow=hidden;fillColor=none;top=0;left=0;bottom=0;right=0;pointerEvents=1;" vertex="1" parent="fRVByirt0AVNoMKBRCzd-29">
          <mxGeometry width="60" height="40" as="geometry">
            <mxRectangle width="60" height="40" as="alternateBounds" />
          </mxGeometry>
        </mxCell>
        <mxCell id="fRVByirt0AVNoMKBRCzd-31" value="0" style="shape=partialRectangle;html=1;whiteSpace=wrap;connectable=0;strokeColor=inherit;overflow=hidden;fillColor=none;top=0;left=0;bottom=0;right=0;pointerEvents=1;" vertex="1" parent="fRVByirt0AVNoMKBRCzd-29">
          <mxGeometry x="60" width="60" height="40" as="geometry">
            <mxRectangle width="60" height="40" as="alternateBounds" />
          </mxGeometry>
        </mxCell>
        <mxCell id="fRVByirt0AVNoMKBRCzd-32" value="" style="shape=tableRow;horizontal=0;startSize=0;swimlaneHead=0;swimlaneBody=0;strokeColor=inherit;top=0;left=0;bottom=0;right=0;collapsible=0;dropTarget=0;fillColor=none;points=[[0,0.5],[1,0.5]];portConstraint=eastwest;" vertex="1" parent="fRVByirt0AVNoMKBRCzd-25">
          <mxGeometry y="80" width="120" height="40" as="geometry" />
        </mxCell>
        <mxCell id="fRVByirt0AVNoMKBRCzd-33" value="0" style="shape=partialRectangle;html=1;whiteSpace=wrap;connectable=0;strokeColor=inherit;overflow=hidden;fillColor=none;top=0;left=0;bottom=0;right=0;pointerEvents=1;" vertex="1" parent="fRVByirt0AVNoMKBRCzd-32">
          <mxGeometry width="60" height="40" as="geometry">
            <mxRectangle width="60" height="40" as="alternateBounds" />
          </mxGeometry>
        </mxCell>
        <mxCell id="fRVByirt0AVNoMKBRCzd-34" value="1" style="shape=partialRectangle;html=1;whiteSpace=wrap;connectable=0;strokeColor=inherit;overflow=hidden;fillColor=none;top=0;left=0;bottom=0;right=0;pointerEvents=1;" vertex="1" parent="fRVByirt0AVNoMKBRCzd-32">
          <mxGeometry x="60" width="60" height="40" as="geometry">
            <mxRectangle width="60" height="40" as="alternateBounds" />
          </mxGeometry>
        </mxCell>
        <mxCell id="fRVByirt0AVNoMKBRCzd-35" value="&lt;font style=&quot;font-size: 14px;&quot;&gt;&lt;b&gt;Filter&lt;/b&gt;&lt;/font&gt;" style="text;html=1;align=center;verticalAlign=middle;resizable=0;points=[];autosize=1;strokeColor=none;fillColor=none;" vertex="1" parent="1">
          <mxGeometry x="39" y="420" width="60" height="30" as="geometry" />
        </mxCell>
        <mxCell id="fRVByirt0AVNoMKBRCzd-36" value="" style="shape=table;startSize=0;container=1;collapsible=0;childLayout=tableLayout;strokeWidth=2;" vertex="1" parent="1">
          <mxGeometry x="660" y="260" width="60" height="120" as="geometry" />
        </mxCell>
        <mxCell id="fRVByirt0AVNoMKBRCzd-37" value="" style="shape=tableRow;horizontal=0;startSize=0;swimlaneHead=0;swimlaneBody=0;strokeColor=inherit;top=0;left=0;bottom=0;right=0;collapsible=0;dropTarget=0;fillColor=none;points=[[0,0.5],[1,0.5]];portConstraint=eastwest;" vertex="1" parent="fRVByirt0AVNoMKBRCzd-36">
          <mxGeometry width="60" height="40" as="geometry" />
        </mxCell>
        <mxCell id="fRVByirt0AVNoMKBRCzd-38" value="60" style="shape=partialRectangle;html=1;whiteSpace=wrap;connectable=0;strokeColor=inherit;overflow=hidden;fillColor=none;top=0;left=0;bottom=0;right=0;pointerEvents=1;" vertex="1" parent="fRVByirt0AVNoMKBRCzd-37">
          <mxGeometry width="60" height="40" as="geometry">
            <mxRectangle width="60" height="40" as="alternateBounds" />
          </mxGeometry>
        </mxCell>
        <mxCell id="fRVByirt0AVNoMKBRCzd-39" value="" style="shape=tableRow;horizontal=0;startSize=0;swimlaneHead=0;swimlaneBody=0;strokeColor=inherit;top=0;left=0;bottom=0;right=0;collapsible=0;dropTarget=0;fillColor=none;points=[[0,0.5],[1,0.5]];portConstraint=eastwest;" vertex="1" parent="fRVByirt0AVNoMKBRCzd-36">
          <mxGeometry y="40" width="60" height="40" as="geometry" />
        </mxCell>
        <mxCell id="fRVByirt0AVNoMKBRCzd-40" value="14" style="shape=partialRectangle;html=1;whiteSpace=wrap;connectable=0;strokeColor=inherit;overflow=hidden;fillColor=none;top=0;left=0;bottom=0;right=0;pointerEvents=1;" vertex="1" parent="fRVByirt0AVNoMKBRCzd-39">
          <mxGeometry width="60" height="40" as="geometry">
            <mxRectangle width="60" height="40" as="alternateBounds" />
          </mxGeometry>
        </mxCell>
        <mxCell id="fRVByirt0AVNoMKBRCzd-41" value="" style="shape=tableRow;horizontal=0;startSize=0;swimlaneHead=0;swimlaneBody=0;strokeColor=inherit;top=0;left=0;bottom=0;right=0;collapsible=0;dropTarget=0;fillColor=none;points=[[0,0.5],[1,0.5]];portConstraint=eastwest;" vertex="1" parent="fRVByirt0AVNoMKBRCzd-36">
          <mxGeometry y="80" width="60" height="40" as="geometry" />
        </mxCell>
        <mxCell id="fRVByirt0AVNoMKBRCzd-42" value="36.5" style="shape=partialRectangle;html=1;whiteSpace=wrap;connectable=0;strokeColor=inherit;overflow=hidden;fillColor=none;top=0;left=0;bottom=0;right=0;pointerEvents=1;" vertex="1" parent="fRVByirt0AVNoMKBRCzd-41">
          <mxGeometry width="60" height="40" as="geometry">
            <mxRectangle width="60" height="40" as="alternateBounds" />
          </mxGeometry>
        </mxCell>
        <mxCell id="fRVByirt0AVNoMKBRCzd-43" value="" style="shape=flexArrow;endArrow=classic;html=1;rounded=0;width=50;endSize=9;endWidth=50;fillColor=#99FFFF;" edge="1" parent="1">
          <mxGeometry width="50" height="50" relative="1" as="geometry">
            <mxPoint x="490" y="320" as="sourcePoint" />
            <mxPoint x="560" y="320" as="targetPoint" />
            <Array as="points">
              <mxPoint x="530" y="320" />
            </Array>
          </mxGeometry>
        </mxCell>
      </root>
    </mxGraphModel>
  </diagram>
  <diagram id="xGcgqH3W7f9jOzXJXIvm" name="MaxPooling">
    <mxGraphModel dx="1434" dy="780" grid="1" gridSize="10" guides="1" tooltips="1" connect="1" arrows="1" fold="1" page="1" pageScale="1" pageWidth="827" pageHeight="1169" math="1" shadow="0">
      <root>
        <mxCell id="0" />
        <mxCell id="1" parent="0" />
        <mxCell id="fgptJ2U7ykfSzyAKpPgC-1" value="" style="shape=table;startSize=0;container=1;collapsible=0;childLayout=tableLayout;strokeWidth=2;" vertex="1" parent="1">
          <mxGeometry x="80" y="110" width="240" height="160" as="geometry" />
        </mxCell>
        <mxCell id="fgptJ2U7ykfSzyAKpPgC-2" value="" style="shape=tableRow;horizontal=0;startSize=0;swimlaneHead=0;swimlaneBody=0;strokeColor=inherit;top=0;left=0;bottom=0;right=0;collapsible=0;dropTarget=0;fillColor=none;points=[[0,0.5],[1,0.5]];portConstraint=eastwest;" vertex="1" parent="fgptJ2U7ykfSzyAKpPgC-1">
          <mxGeometry width="240" height="40" as="geometry" />
        </mxCell>
        <mxCell id="fgptJ2U7ykfSzyAKpPgC-3" value="19" style="shape=partialRectangle;html=1;whiteSpace=wrap;connectable=0;strokeColor=#d79b00;overflow=hidden;fillColor=#ffe6cc;top=0;left=0;bottom=0;right=0;pointerEvents=1;" vertex="1" parent="fgptJ2U7ykfSzyAKpPgC-2">
          <mxGeometry width="60" height="40" as="geometry">
            <mxRectangle width="60" height="40" as="alternateBounds" />
          </mxGeometry>
        </mxCell>
        <mxCell id="fgptJ2U7ykfSzyAKpPgC-4" value="18" style="shape=partialRectangle;html=1;whiteSpace=wrap;connectable=0;strokeColor=#d79b00;overflow=hidden;fillColor=#ffe6cc;top=0;left=0;bottom=0;right=0;pointerEvents=1;" vertex="1" parent="fgptJ2U7ykfSzyAKpPgC-2">
          <mxGeometry x="60" width="60" height="40" as="geometry">
            <mxRectangle width="60" height="40" as="alternateBounds" />
          </mxGeometry>
        </mxCell>
        <mxCell id="fgptJ2U7ykfSzyAKpPgC-5" value="42" style="shape=partialRectangle;html=1;whiteSpace=wrap;connectable=0;strokeColor=#82b366;overflow=hidden;fillColor=#d5e8d4;top=0;left=0;bottom=0;right=0;pointerEvents=1;" vertex="1" parent="fgptJ2U7ykfSzyAKpPgC-2">
          <mxGeometry x="120" width="60" height="40" as="geometry">
            <mxRectangle width="60" height="40" as="alternateBounds" />
          </mxGeometry>
        </mxCell>
        <mxCell id="fgptJ2U7ykfSzyAKpPgC-6" value="30" style="shape=partialRectangle;html=1;whiteSpace=wrap;connectable=0;strokeColor=#82b366;overflow=hidden;fillColor=#d5e8d4;top=0;left=0;bottom=0;right=0;pointerEvents=1;" vertex="1" parent="fgptJ2U7ykfSzyAKpPgC-2">
          <mxGeometry x="180" width="60" height="40" as="geometry">
            <mxRectangle width="60" height="40" as="alternateBounds" />
          </mxGeometry>
        </mxCell>
        <mxCell id="fgptJ2U7ykfSzyAKpPgC-7" value="" style="shape=tableRow;horizontal=0;startSize=0;swimlaneHead=0;swimlaneBody=0;strokeColor=inherit;top=0;left=0;bottom=0;right=0;collapsible=0;dropTarget=0;fillColor=none;points=[[0,0.5],[1,0.5]];portConstraint=eastwest;" vertex="1" parent="fgptJ2U7ykfSzyAKpPgC-1">
          <mxGeometry y="40" width="240" height="40" as="geometry" />
        </mxCell>
        <mxCell id="fgptJ2U7ykfSzyAKpPgC-8" value="21" style="shape=partialRectangle;html=1;whiteSpace=wrap;connectable=0;strokeColor=#d79b00;overflow=hidden;fillColor=#ffe6cc;top=0;left=0;bottom=0;right=0;pointerEvents=1;" vertex="1" parent="fgptJ2U7ykfSzyAKpPgC-7">
          <mxGeometry width="60" height="40" as="geometry">
            <mxRectangle width="60" height="40" as="alternateBounds" />
          </mxGeometry>
        </mxCell>
        <mxCell id="fgptJ2U7ykfSzyAKpPgC-9" value="15" style="shape=partialRectangle;html=1;whiteSpace=wrap;connectable=0;strokeColor=#d79b00;overflow=hidden;fillColor=#ffe6cc;top=0;left=0;bottom=0;right=0;pointerEvents=1;" vertex="1" parent="fgptJ2U7ykfSzyAKpPgC-7">
          <mxGeometry x="60" width="60" height="40" as="geometry">
            <mxRectangle width="60" height="40" as="alternateBounds" />
          </mxGeometry>
        </mxCell>
        <mxCell id="fgptJ2U7ykfSzyAKpPgC-10" value="45" style="shape=partialRectangle;html=1;whiteSpace=wrap;connectable=0;strokeColor=#82b366;overflow=hidden;fillColor=#d5e8d4;top=0;left=0;bottom=0;right=0;pointerEvents=1;" vertex="1" parent="fgptJ2U7ykfSzyAKpPgC-7">
          <mxGeometry x="120" width="60" height="40" as="geometry">
            <mxRectangle width="60" height="40" as="alternateBounds" />
          </mxGeometry>
        </mxCell>
        <mxCell id="fgptJ2U7ykfSzyAKpPgC-11" value="50" style="shape=partialRectangle;html=1;whiteSpace=wrap;connectable=0;strokeColor=#82b366;overflow=hidden;fillColor=#d5e8d4;top=0;left=0;bottom=0;right=0;pointerEvents=1;" vertex="1" parent="fgptJ2U7ykfSzyAKpPgC-7">
          <mxGeometry x="180" width="60" height="40" as="geometry">
            <mxRectangle width="60" height="40" as="alternateBounds" />
          </mxGeometry>
        </mxCell>
        <mxCell id="fgptJ2U7ykfSzyAKpPgC-12" value="" style="shape=tableRow;horizontal=0;startSize=0;swimlaneHead=0;swimlaneBody=0;strokeColor=inherit;top=0;left=0;bottom=0;right=0;collapsible=0;dropTarget=0;fillColor=none;points=[[0,0.5],[1,0.5]];portConstraint=eastwest;" vertex="1" parent="fgptJ2U7ykfSzyAKpPgC-1">
          <mxGeometry y="80" width="240" height="40" as="geometry" />
        </mxCell>
        <mxCell id="fgptJ2U7ykfSzyAKpPgC-13" value="8" style="shape=partialRectangle;html=1;whiteSpace=wrap;connectable=0;strokeColor=#9673a6;overflow=hidden;fillColor=#e1d5e7;top=0;left=0;bottom=0;right=0;pointerEvents=1;" vertex="1" parent="fgptJ2U7ykfSzyAKpPgC-12">
          <mxGeometry width="60" height="40" as="geometry">
            <mxRectangle width="60" height="40" as="alternateBounds" />
          </mxGeometry>
        </mxCell>
        <mxCell id="fgptJ2U7ykfSzyAKpPgC-14" value="9" style="shape=partialRectangle;html=1;whiteSpace=wrap;connectable=0;strokeColor=#9673a6;overflow=hidden;fillColor=#e1d5e7;top=0;left=0;bottom=0;right=0;pointerEvents=1;" vertex="1" parent="fgptJ2U7ykfSzyAKpPgC-12">
          <mxGeometry x="60" width="60" height="40" as="geometry">
            <mxRectangle width="60" height="40" as="alternateBounds" />
          </mxGeometry>
        </mxCell>
        <mxCell id="fgptJ2U7ykfSzyAKpPgC-15" value="29" style="shape=partialRectangle;html=1;whiteSpace=wrap;connectable=0;strokeColor=#6c8ebf;overflow=hidden;fillColor=#dae8fc;top=0;left=0;bottom=0;right=0;pointerEvents=1;" vertex="1" parent="fgptJ2U7ykfSzyAKpPgC-12">
          <mxGeometry x="120" width="60" height="40" as="geometry">
            <mxRectangle width="60" height="40" as="alternateBounds" />
          </mxGeometry>
        </mxCell>
        <mxCell id="fgptJ2U7ykfSzyAKpPgC-16" value="28" style="shape=partialRectangle;html=1;whiteSpace=wrap;connectable=0;strokeColor=#6c8ebf;overflow=hidden;fillColor=#dae8fc;top=0;left=0;bottom=0;right=0;pointerEvents=1;" vertex="1" parent="fgptJ2U7ykfSzyAKpPgC-12">
          <mxGeometry x="180" width="60" height="40" as="geometry">
            <mxRectangle width="60" height="40" as="alternateBounds" />
          </mxGeometry>
        </mxCell>
        <mxCell id="fgptJ2U7ykfSzyAKpPgC-17" value="" style="shape=tableRow;horizontal=0;startSize=0;swimlaneHead=0;swimlaneBody=0;strokeColor=inherit;top=0;left=0;bottom=0;right=0;collapsible=0;dropTarget=0;fillColor=none;points=[[0,0.5],[1,0.5]];portConstraint=eastwest;" vertex="1" parent="fgptJ2U7ykfSzyAKpPgC-1">
          <mxGeometry y="120" width="240" height="40" as="geometry" />
        </mxCell>
        <mxCell id="fgptJ2U7ykfSzyAKpPgC-18" value="7" style="shape=partialRectangle;html=1;whiteSpace=wrap;connectable=0;strokeColor=#9673a6;overflow=hidden;fillColor=#e1d5e7;top=0;left=0;bottom=0;right=0;pointerEvents=1;" vertex="1" parent="fgptJ2U7ykfSzyAKpPgC-17">
          <mxGeometry width="60" height="40" as="geometry">
            <mxRectangle width="60" height="40" as="alternateBounds" />
          </mxGeometry>
        </mxCell>
        <mxCell id="fgptJ2U7ykfSzyAKpPgC-19" value="6" style="shape=partialRectangle;html=1;whiteSpace=wrap;connectable=0;strokeColor=#9673a6;overflow=hidden;fillColor=#e1d5e7;top=0;left=0;bottom=0;right=0;pointerEvents=1;" vertex="1" parent="fgptJ2U7ykfSzyAKpPgC-17">
          <mxGeometry x="60" width="60" height="40" as="geometry">
            <mxRectangle width="60" height="40" as="alternateBounds" />
          </mxGeometry>
        </mxCell>
        <mxCell id="fgptJ2U7ykfSzyAKpPgC-20" value="27" style="shape=partialRectangle;html=1;whiteSpace=wrap;connectable=0;strokeColor=#6c8ebf;overflow=hidden;fillColor=#dae8fc;top=0;left=0;bottom=0;right=0;pointerEvents=1;" vertex="1" parent="fgptJ2U7ykfSzyAKpPgC-17">
          <mxGeometry x="120" width="60" height="40" as="geometry">
            <mxRectangle width="60" height="40" as="alternateBounds" />
          </mxGeometry>
        </mxCell>
        <mxCell id="fgptJ2U7ykfSzyAKpPgC-21" value="25" style="shape=partialRectangle;html=1;whiteSpace=wrap;connectable=0;strokeColor=#6c8ebf;overflow=hidden;fillColor=#dae8fc;top=0;left=0;bottom=0;right=0;pointerEvents=1;" vertex="1" parent="fgptJ2U7ykfSzyAKpPgC-17">
          <mxGeometry x="180" width="60" height="40" as="geometry">
            <mxRectangle width="60" height="40" as="alternateBounds" />
          </mxGeometry>
        </mxCell>
        <mxCell id="fgptJ2U7ykfSzyAKpPgC-22" value="" style="shape=flexArrow;endArrow=classic;html=1;rounded=0;endWidth=53;endSize=8.33;width=39;fillColor=#66FFB3;" edge="1" parent="1">
          <mxGeometry width="50" height="50" relative="1" as="geometry">
            <mxPoint x="390" y="189.5" as="sourcePoint" />
            <mxPoint x="456" y="189.5" as="targetPoint" />
          </mxGeometry>
        </mxCell>
        <mxCell id="fgptJ2U7ykfSzyAKpPgC-23" value="" style="shape=table;startSize=0;container=1;collapsible=0;childLayout=tableLayout;strokeWidth=2;fillColor=#dae8fc;strokeColor=#6c8ebf;" vertex="1" parent="1">
          <mxGeometry x="530" y="150" width="120" height="80" as="geometry" />
        </mxCell>
        <mxCell id="fgptJ2U7ykfSzyAKpPgC-24" value="" style="shape=tableRow;horizontal=0;startSize=0;swimlaneHead=0;swimlaneBody=0;strokeColor=inherit;top=0;left=0;bottom=0;right=0;collapsible=0;dropTarget=0;fillColor=none;points=[[0,0.5],[1,0.5]];portConstraint=eastwest;" vertex="1" parent="fgptJ2U7ykfSzyAKpPgC-23">
          <mxGeometry width="120" height="40" as="geometry" />
        </mxCell>
        <mxCell id="fgptJ2U7ykfSzyAKpPgC-25" value="21" style="shape=partialRectangle;html=1;whiteSpace=wrap;connectable=0;strokeColor=#d79b00;overflow=hidden;fillColor=#ffe6cc;top=0;left=0;bottom=0;right=0;pointerEvents=1;" vertex="1" parent="fgptJ2U7ykfSzyAKpPgC-24">
          <mxGeometry width="60" height="40" as="geometry">
            <mxRectangle width="60" height="40" as="alternateBounds" />
          </mxGeometry>
        </mxCell>
        <mxCell id="fgptJ2U7ykfSzyAKpPgC-26" value="50" style="shape=partialRectangle;html=1;whiteSpace=wrap;connectable=0;strokeColor=#82b366;overflow=hidden;fillColor=#d5e8d4;top=0;left=0;bottom=0;right=0;pointerEvents=1;" vertex="1" parent="fgptJ2U7ykfSzyAKpPgC-24">
          <mxGeometry x="60" width="60" height="40" as="geometry">
            <mxRectangle width="60" height="40" as="alternateBounds" />
          </mxGeometry>
        </mxCell>
        <mxCell id="fgptJ2U7ykfSzyAKpPgC-27" value="" style="shape=tableRow;horizontal=0;startSize=0;swimlaneHead=0;swimlaneBody=0;strokeColor=inherit;top=0;left=0;bottom=0;right=0;collapsible=0;dropTarget=0;fillColor=none;points=[[0,0.5],[1,0.5]];portConstraint=eastwest;" vertex="1" parent="fgptJ2U7ykfSzyAKpPgC-23">
          <mxGeometry y="40" width="120" height="40" as="geometry" />
        </mxCell>
        <mxCell id="fgptJ2U7ykfSzyAKpPgC-28" value="9" style="shape=partialRectangle;html=1;whiteSpace=wrap;connectable=0;strokeColor=#9673a6;overflow=hidden;fillColor=#e1d5e7;top=0;left=0;bottom=0;right=0;pointerEvents=1;" vertex="1" parent="fgptJ2U7ykfSzyAKpPgC-27">
          <mxGeometry width="60" height="40" as="geometry">
            <mxRectangle width="60" height="40" as="alternateBounds" />
          </mxGeometry>
        </mxCell>
        <mxCell id="fgptJ2U7ykfSzyAKpPgC-29" value="29" style="shape=partialRectangle;html=1;whiteSpace=wrap;connectable=0;strokeColor=inherit;overflow=hidden;fillColor=none;top=0;left=0;bottom=0;right=0;pointerEvents=1;" vertex="1" parent="fgptJ2U7ykfSzyAKpPgC-27">
          <mxGeometry x="60" width="60" height="40" as="geometry">
            <mxRectangle width="60" height="40" as="alternateBounds" />
          </mxGeometry>
        </mxCell>
      </root>
    </mxGraphModel>
  </diagram>
  <diagram id="F2Q2uyUkl7zbh9doPwwJ" name="cnn_xg_li">
    <mxGraphModel dx="1366" dy="743" grid="1" gridSize="10" guides="1" tooltips="1" connect="1" arrows="1" fold="1" page="1" pageScale="1" pageWidth="827" pageHeight="1169" math="1" shadow="0">
      <root>
        <mxCell id="0" />
        <mxCell id="1" parent="0" />
        <mxCell id="SV2CB-ULUUEY41bw3Out-1" value="&lt;b&gt;Input Vital Signs&lt;/b&gt;" style="rounded=0;whiteSpace=wrap;html=1;fillColor=#f5f5f5;fontColor=#333333;strokeColor=#666666;" vertex="1" parent="1">
          <mxGeometry x="330" y="20" width="170" height="20" as="geometry" />
        </mxCell>
        <mxCell id="SV2CB-ULUUEY41bw3Out-2" value="&lt;font style=&quot;font-size: 11px;&quot;&gt;Convolution Layer&lt;/font&gt;" style="rounded=1;whiteSpace=wrap;html=1;fillColor=#b1ddf0;strokeColor=#10739e;" vertex="1" parent="1">
          <mxGeometry x="317.5" y="60" width="195" height="20" as="geometry" />
        </mxCell>
        <mxCell id="SV2CB-ULUUEY41bw3Out-3" value="&lt;font color=&quot;#4d4d4d&quot;&gt;$$Kernel: 3*1, 32 filters$$&amp;nbsp;&lt;/font&gt;" style="text;html=1;align=center;verticalAlign=middle;resizable=0;points=[];autosize=1;strokeColor=none;fillColor=none;imageHeight=20;" vertex="1" parent="1">
          <mxGeometry x="550" y="60" width="160" height="30" as="geometry" />
        </mxCell>
        <mxCell id="SV2CB-ULUUEY41bw3Out-4" value="&lt;font style=&quot;font-size: 11px;&quot;&gt;Convolution Layer&lt;/font&gt;" style="rounded=1;whiteSpace=wrap;html=1;fillColor=#b1ddf0;strokeColor=#10739e;" vertex="1" parent="1">
          <mxGeometry x="317.5" y="90" width="195" height="20" as="geometry" />
        </mxCell>
        <mxCell id="SV2CB-ULUUEY41bw3Out-5" value="&lt;font color=&quot;#4d4d4d&quot;&gt;$$Kernel: 1*7, 32 filters$$&amp;nbsp;&lt;/font&gt;" style="text;html=1;align=center;verticalAlign=middle;resizable=0;points=[];autosize=1;strokeColor=none;fillColor=none;imageHeight=20;" vertex="1" parent="1">
          <mxGeometry x="550" y="90" width="160" height="30" as="geometry" />
        </mxCell>
        <mxCell id="SV2CB-ULUUEY41bw3Out-6" value="&lt;font color=&quot;#333333&quot;&gt;MaxPooling&lt;/font&gt;" style="rounded=1;whiteSpace=wrap;html=1;fillColor=#bac8d3;strokeColor=#23445d;" vertex="1" parent="1">
          <mxGeometry x="350" y="120" width="130" height="20" as="geometry" />
        </mxCell>
        <mxCell id="SV2CB-ULUUEY41bw3Out-7" value="&lt;font style=&quot;font-size: 11px;&quot;&gt;Convolution Layer&lt;/font&gt;" style="rounded=1;whiteSpace=wrap;html=1;fillColor=#b1ddf0;strokeColor=#10739e;" vertex="1" parent="1">
          <mxGeometry x="317.5" y="150" width="195" height="20" as="geometry" />
        </mxCell>
        <mxCell id="SV2CB-ULUUEY41bw3Out-8" value="&lt;font color=&quot;#4d4d4d&quot;&gt;$$Kernel: 1*7, 32 filters$$&amp;nbsp;&lt;/font&gt;" style="text;html=1;align=center;verticalAlign=middle;resizable=0;points=[];autosize=1;strokeColor=none;fillColor=none;imageHeight=20;" vertex="1" parent="1">
          <mxGeometry x="550" y="150" width="160" height="30" as="geometry" />
        </mxCell>
        <mxCell id="SV2CB-ULUUEY41bw3Out-9" value="&lt;font color=&quot;#333333&quot;&gt;MaxPooling&lt;/font&gt;" style="rounded=1;whiteSpace=wrap;html=1;fillColor=#bac8d3;strokeColor=#23445d;" vertex="1" parent="1">
          <mxGeometry x="350" y="180" width="130" height="20" as="geometry" />
        </mxCell>
        <mxCell id="SV2CB-ULUUEY41bw3Out-10" value="&lt;font style=&quot;font-size: 11px;&quot;&gt;Convolution Layer&lt;/font&gt;" style="rounded=1;whiteSpace=wrap;html=1;fillColor=#b1ddf0;strokeColor=#10739e;" vertex="1" parent="1">
          <mxGeometry x="317.5" y="210" width="195" height="20" as="geometry" />
        </mxCell>
        <mxCell id="SV2CB-ULUUEY41bw3Out-11" value="&lt;font color=&quot;#4d4d4d&quot;&gt;$$Kernel: 3*1, 32 filters$$&amp;nbsp;&lt;/font&gt;" style="text;html=1;align=center;verticalAlign=middle;resizable=0;points=[];autosize=1;strokeColor=none;fillColor=none;imageHeight=20;" vertex="1" parent="1">
          <mxGeometry x="550" y="210" width="160" height="30" as="geometry" />
        </mxCell>
        <mxCell id="SV2CB-ULUUEY41bw3Out-12" value="Flatten" style="rounded=1;whiteSpace=wrap;html=1;" vertex="1" parent="1">
          <mxGeometry x="290" y="240" width="250" height="20" as="geometry" />
        </mxCell>
        <mxCell id="SV2CB-ULUUEY41bw3Out-13" value="Dense: 32" style="rounded=1;whiteSpace=wrap;html=1;fillColor=#fad9d5;strokeColor=#ae4132;" vertex="1" parent="1">
          <mxGeometry x="355" y="270" width="120" height="20" as="geometry" />
        </mxCell>
        <mxCell id="SV2CB-ULUUEY41bw3Out-14" value="Dense: 16" style="rounded=1;whiteSpace=wrap;html=1;fillColor=#fad9d5;strokeColor=#ae4132;" vertex="1" parent="1">
          <mxGeometry x="355" y="300" width="120" height="20" as="geometry" />
        </mxCell>
        <mxCell id="SV2CB-ULUUEY41bw3Out-15" value="" style="shape=flexArrow;endArrow=classic;html=1;rounded=0;endWidth=66.93877551020408;endSize=9.714285714285715;width=49.28571428571429;" edge="1" parent="1">
          <mxGeometry width="50" height="50" relative="1" as="geometry">
            <mxPoint x="410" y="340" as="sourcePoint" />
            <mxPoint x="410" y="390" as="targetPoint" />
          </mxGeometry>
        </mxCell>
        <mxCell id="SV2CB-ULUUEY41bw3Out-17" value="" style="rounded=0;whiteSpace=wrap;html=1;fillColor=none;strokeWidth=3;strokeColor=#FF9999;" vertex="1" parent="1">
          <mxGeometry x="270" y="45" width="280" height="285" as="geometry" />
        </mxCell>
        <mxCell id="SV2CB-ULUUEY41bw3Out-18" value="" style="rounded=0;whiteSpace=wrap;html=1;fillColor=none;strokeWidth=3;strokeColor=#FF9999;" vertex="1" parent="1">
          <mxGeometry x="170" y="400" width="480" height="150" as="geometry" />
        </mxCell>
        <mxCell id="SV2CB-ULUUEY41bw3Out-19" value="XGBoost Regressor 1" style="ellipse;whiteSpace=wrap;html=1;fillColor=#fff2cc;gradientColor=#ffd966;strokeColor=#d6b656;" vertex="1" parent="1">
          <mxGeometry x="190" y="420" width="90" height="50" as="geometry" />
        </mxCell>
        <mxCell id="SV2CB-ULUUEY41bw3Out-20" value="XGBoost Regressor 2" style="ellipse;whiteSpace=wrap;html=1;fillColor=#fff2cc;gradientColor=#ffd966;strokeColor=#d6b656;" vertex="1" parent="1">
          <mxGeometry x="275" y="485" width="90" height="50" as="geometry" />
        </mxCell>
        <mxCell id="SV2CB-ULUUEY41bw3Out-21" value="XGBoost Regressor 3" style="ellipse;whiteSpace=wrap;html=1;fillColor=#fff2cc;gradientColor=#ffd966;strokeColor=#d6b656;" vertex="1" parent="1">
          <mxGeometry x="365" y="420" width="90" height="50" as="geometry" />
        </mxCell>
        <mxCell id="SV2CB-ULUUEY41bw3Out-22" value="XGBoost Regressor N" style="ellipse;whiteSpace=wrap;html=1;fillColor=#fff2cc;gradientColor=#ffd966;strokeColor=#d6b656;" vertex="1" parent="1">
          <mxGeometry x="540" y="420" width="90" height="50" as="geometry" />
        </mxCell>
        <mxCell id="SV2CB-ULUUEY41bw3Out-23" value="" style="endArrow=classic;html=1;rounded=0;entryX=0;entryY=0.5;entryDx=0;entryDy=0;exitX=1;exitY=1;exitDx=0;exitDy=0;strokeColor=#00FFFF;" edge="1" parent="1" source="SV2CB-ULUUEY41bw3Out-19" target="SV2CB-ULUUEY41bw3Out-20">
          <mxGeometry width="50" height="50" relative="1" as="geometry">
            <mxPoint x="490" y="430" as="sourcePoint" />
            <mxPoint x="540" y="380" as="targetPoint" />
          </mxGeometry>
        </mxCell>
        <mxCell id="SV2CB-ULUUEY41bw3Out-24" value="" style="endArrow=classic;html=1;rounded=0;entryX=0;entryY=1;entryDx=0;entryDy=0;exitX=1;exitY=0.5;exitDx=0;exitDy=0;strokeColor=#00FFFF;" edge="1" parent="1" source="SV2CB-ULUUEY41bw3Out-20" target="SV2CB-ULUUEY41bw3Out-21">
          <mxGeometry width="50" height="50" relative="1" as="geometry">
            <mxPoint x="447" y="585" as="sourcePoint" />
            <mxPoint x="470" y="627" as="targetPoint" />
          </mxGeometry>
        </mxCell>
        <mxCell id="SV2CB-ULUUEY41bw3Out-26" value="XGBoost Regressors ..." style="ellipse;whiteSpace=wrap;html=1;fillColor=#fff2cc;gradientColor=#ffd966;strokeColor=#d6b656;" vertex="1" parent="1">
          <mxGeometry x="460" y="480" width="100" height="60" as="geometry" />
        </mxCell>
        <mxCell id="SV2CB-ULUUEY41bw3Out-27" value="" style="endArrow=classic;html=1;rounded=0;entryX=0;entryY=0.5;entryDx=0;entryDy=0;exitX=1;exitY=1;exitDx=0;exitDy=0;strokeColor=#00FFFF;" edge="1" parent="1" source="SV2CB-ULUUEY41bw3Out-21" target="SV2CB-ULUUEY41bw3Out-26">
          <mxGeometry width="50" height="50" relative="1" as="geometry">
            <mxPoint x="440" y="470" as="sourcePoint" />
            <mxPoint x="448" y="517" as="targetPoint" />
          </mxGeometry>
        </mxCell>
        <mxCell id="SV2CB-ULUUEY41bw3Out-28" value="" style="endArrow=classic;html=1;rounded=0;entryX=0.5;entryY=1;entryDx=0;entryDy=0;exitX=1;exitY=0.5;exitDx=0;exitDy=0;strokeColor=#00FFFF;" edge="1" parent="1" source="SV2CB-ULUUEY41bw3Out-26" target="SV2CB-ULUUEY41bw3Out-22">
          <mxGeometry width="50" height="50" relative="1" as="geometry">
            <mxPoint x="750" y="510" as="sourcePoint" />
            <mxPoint x="758" y="557" as="targetPoint" />
          </mxGeometry>
        </mxCell>
        <mxCell id="SV2CB-ULUUEY41bw3Out-29" value="" style="shape=flexArrow;endArrow=classic;html=1;rounded=0;" edge="1" parent="1">
          <mxGeometry width="50" height="50" relative="1" as="geometry">
            <mxPoint x="410" y="560" as="sourcePoint" />
            <mxPoint x="410" y="600" as="targetPoint" />
          </mxGeometry>
        </mxCell>
        <mxCell id="SV2CB-ULUUEY41bw3Out-30" value="Output" style="ellipse;whiteSpace=wrap;html=1;aspect=fixed;fillColor=#d5e8d4;gradientColor=#97d077;strokeColor=#82b366;" vertex="1" parent="1">
          <mxGeometry x="385" y="610" width="50" height="50" as="geometry" />
        </mxCell>
        <mxCell id="SV2CB-ULUUEY41bw3Out-31" value="&lt;font style=&quot;font-size: 12px;&quot;&gt;GCS Value, Ventilation Code, Urine Output&lt;/font&gt;" style="rounded=0;whiteSpace=wrap;html=1;fillColor=#f5f5f5;fontColor=#333333;strokeColor=#666666;" vertex="1" parent="1">
          <mxGeometry x="570" y="350" width="190" height="30" as="geometry" />
        </mxCell>
        <mxCell id="SV2CB-ULUUEY41bw3Out-33" value="" style="endArrow=classic;html=1;rounded=0;" edge="1" parent="1">
          <mxGeometry width="50" height="50" relative="1" as="geometry">
            <mxPoint x="560" y="364.64" as="sourcePoint" />
            <mxPoint x="490" y="364.64" as="targetPoint" />
          </mxGeometry>
        </mxCell>
        <mxCell id="vm8971nhsoz1ApaF0Tmy-1" value="&lt;b style=&quot;font-size: 14px;&quot;&gt;&lt;font face=&quot;Verdana&quot; style=&quot;font-size: 14px;&quot;&gt;CNN Feature&lt;/font&gt;&lt;/b&gt;&lt;div style=&quot;font-size: 14px;&quot;&gt;&lt;b style=&quot;&quot;&gt;&lt;font face=&quot;Verdana&quot; style=&quot;font-size: 14px;&quot;&gt;Extraction&lt;/font&gt;&lt;/b&gt;&lt;/div&gt;" style="text;html=1;align=center;verticalAlign=middle;resizable=0;points=[];autosize=1;strokeColor=none;fillColor=none;" vertex="1" parent="1">
          <mxGeometry x="120" y="138" width="120" height="50" as="geometry" />
        </mxCell>
        <mxCell id="vm8971nhsoz1ApaF0Tmy-2" value="&lt;font face=&quot;Verdana&quot;&gt;&lt;span style=&quot;font-size: 14px;&quot;&gt;&lt;b&gt;XGBoost Model&lt;/b&gt;&lt;/span&gt;&lt;/font&gt;" style="text;html=1;align=center;verticalAlign=middle;resizable=0;points=[];autosize=1;strokeColor=none;fillColor=none;" vertex="1" parent="1">
          <mxGeometry x="20" y="445" width="140" height="30" as="geometry" />
        </mxCell>
      </root>
    </mxGraphModel>
  </diagram>
  <diagram name="cnn_xg_ppca" id="3Etf3QqirVHgGgpzadPK">
    <mxGraphModel dx="1434" dy="780" grid="1" gridSize="10" guides="1" tooltips="1" connect="1" arrows="1" fold="1" page="1" pageScale="1" pageWidth="827" pageHeight="1169" math="1" shadow="0">
      <root>
        <mxCell id="l3ruy7dSjuwmS-tjOcvW-0" />
        <mxCell id="l3ruy7dSjuwmS-tjOcvW-1" parent="l3ruy7dSjuwmS-tjOcvW-0" />
        <mxCell id="l3ruy7dSjuwmS-tjOcvW-2" value="&lt;b&gt;Input Vital Signs&lt;/b&gt;" style="rounded=0;whiteSpace=wrap;html=1;fillColor=#f5f5f5;fontColor=#333333;strokeColor=#666666;" vertex="1" parent="l3ruy7dSjuwmS-tjOcvW-1">
          <mxGeometry x="330" y="20" width="170" height="20" as="geometry" />
        </mxCell>
        <mxCell id="l3ruy7dSjuwmS-tjOcvW-3" value="&lt;font style=&quot;font-size: 11px;&quot;&gt;Convolution Layer&lt;/font&gt;" style="rounded=1;whiteSpace=wrap;html=1;fillColor=#b1ddf0;strokeColor=#10739e;" vertex="1" parent="l3ruy7dSjuwmS-tjOcvW-1">
          <mxGeometry x="317.5" y="60" width="195" height="20" as="geometry" />
        </mxCell>
        <mxCell id="l3ruy7dSjuwmS-tjOcvW-4" value="&lt;font color=&quot;#4d4d4d&quot;&gt;$$Kernel: 4*1, 32 filters$$&amp;nbsp;&lt;/font&gt;" style="text;html=1;align=center;verticalAlign=middle;resizable=0;points=[];autosize=1;strokeColor=none;fillColor=none;imageHeight=20;" vertex="1" parent="l3ruy7dSjuwmS-tjOcvW-1">
          <mxGeometry x="550" y="60" width="160" height="30" as="geometry" />
        </mxCell>
        <mxCell id="l3ruy7dSjuwmS-tjOcvW-5" value="&lt;font style=&quot;font-size: 11px;&quot;&gt;Convolution Layer&lt;/font&gt;" style="rounded=1;whiteSpace=wrap;html=1;fillColor=#b1ddf0;strokeColor=#10739e;" vertex="1" parent="l3ruy7dSjuwmS-tjOcvW-1">
          <mxGeometry x="317.5" y="90" width="195" height="20" as="geometry" />
        </mxCell>
        <mxCell id="l3ruy7dSjuwmS-tjOcvW-6" value="&lt;font color=&quot;#4d4d4d&quot;&gt;$$Kernel: 1*7, 32 filters$$&amp;nbsp;&lt;/font&gt;" style="text;html=1;align=center;verticalAlign=middle;resizable=0;points=[];autosize=1;strokeColor=none;fillColor=none;imageHeight=20;" vertex="1" parent="l3ruy7dSjuwmS-tjOcvW-1">
          <mxGeometry x="550" y="90" width="160" height="30" as="geometry" />
        </mxCell>
        <mxCell id="l3ruy7dSjuwmS-tjOcvW-7" value="&lt;font color=&quot;#333333&quot;&gt;MaxPooling&lt;/font&gt;" style="rounded=1;whiteSpace=wrap;html=1;fillColor=#bac8d3;strokeColor=#23445d;" vertex="1" parent="l3ruy7dSjuwmS-tjOcvW-1">
          <mxGeometry x="350" y="120" width="130" height="20" as="geometry" />
        </mxCell>
        <mxCell id="l3ruy7dSjuwmS-tjOcvW-8" value="&lt;font style=&quot;font-size: 11px;&quot;&gt;Convolution Layer&lt;/font&gt;" style="rounded=1;whiteSpace=wrap;html=1;fillColor=#b1ddf0;strokeColor=#10739e;" vertex="1" parent="l3ruy7dSjuwmS-tjOcvW-1">
          <mxGeometry x="317.5" y="150" width="195" height="20" as="geometry" />
        </mxCell>
        <mxCell id="l3ruy7dSjuwmS-tjOcvW-9" value="&lt;font color=&quot;#4d4d4d&quot;&gt;$$Kernel: 1*7, 32 filters$$&amp;nbsp;&lt;/font&gt;" style="text;html=1;align=center;verticalAlign=middle;resizable=0;points=[];autosize=1;strokeColor=none;fillColor=none;imageHeight=20;" vertex="1" parent="l3ruy7dSjuwmS-tjOcvW-1">
          <mxGeometry x="550" y="150" width="160" height="30" as="geometry" />
        </mxCell>
        <mxCell id="l3ruy7dSjuwmS-tjOcvW-10" value="&lt;font color=&quot;#333333&quot;&gt;MaxPooling&lt;/font&gt;" style="rounded=1;whiteSpace=wrap;html=1;fillColor=#bac8d3;strokeColor=#23445d;" vertex="1" parent="l3ruy7dSjuwmS-tjOcvW-1">
          <mxGeometry x="350" y="180" width="130" height="20" as="geometry" />
        </mxCell>
        <mxCell id="l3ruy7dSjuwmS-tjOcvW-11" value="&lt;font style=&quot;font-size: 11px;&quot;&gt;Convolution Layer&lt;/font&gt;" style="rounded=1;whiteSpace=wrap;html=1;fillColor=#b1ddf0;strokeColor=#10739e;" vertex="1" parent="l3ruy7dSjuwmS-tjOcvW-1">
          <mxGeometry x="317.5" y="210" width="195" height="20" as="geometry" />
        </mxCell>
        <mxCell id="l3ruy7dSjuwmS-tjOcvW-12" value="&lt;font color=&quot;#4d4d4d&quot;&gt;$$Kernel: 4*1, 32 filters$$&amp;nbsp;&lt;/font&gt;" style="text;html=1;align=center;verticalAlign=middle;resizable=0;points=[];autosize=1;strokeColor=none;fillColor=none;imageHeight=20;" vertex="1" parent="l3ruy7dSjuwmS-tjOcvW-1">
          <mxGeometry x="550" y="210" width="160" height="30" as="geometry" />
        </mxCell>
        <mxCell id="l3ruy7dSjuwmS-tjOcvW-13" value="Flatten" style="rounded=1;whiteSpace=wrap;html=1;" vertex="1" parent="l3ruy7dSjuwmS-tjOcvW-1">
          <mxGeometry x="290" y="240" width="250" height="20" as="geometry" />
        </mxCell>
        <mxCell id="l3ruy7dSjuwmS-tjOcvW-14" value="Dense: 48" style="rounded=1;whiteSpace=wrap;html=1;fillColor=#fad9d5;strokeColor=#ae4132;" vertex="1" parent="l3ruy7dSjuwmS-tjOcvW-1">
          <mxGeometry x="355" y="270" width="120" height="20" as="geometry" />
        </mxCell>
        <mxCell id="l3ruy7dSjuwmS-tjOcvW-15" value="Dense: 24" style="rounded=1;whiteSpace=wrap;html=1;fillColor=#fad9d5;strokeColor=#ae4132;" vertex="1" parent="l3ruy7dSjuwmS-tjOcvW-1">
          <mxGeometry x="355" y="300" width="120" height="20" as="geometry" />
        </mxCell>
        <mxCell id="l3ruy7dSjuwmS-tjOcvW-16" value="" style="shape=flexArrow;endArrow=classic;html=1;rounded=0;endWidth=66.93877551020408;endSize=9.714285714285715;width=49.28571428571429;" edge="1" parent="l3ruy7dSjuwmS-tjOcvW-1">
          <mxGeometry width="50" height="50" relative="1" as="geometry">
            <mxPoint x="410" y="340" as="sourcePoint" />
            <mxPoint x="410" y="390" as="targetPoint" />
          </mxGeometry>
        </mxCell>
        <mxCell id="l3ruy7dSjuwmS-tjOcvW-17" value="" style="rounded=0;whiteSpace=wrap;html=1;fillColor=none;strokeWidth=3;strokeColor=#FF9999;" vertex="1" parent="l3ruy7dSjuwmS-tjOcvW-1">
          <mxGeometry x="275" y="47.5" width="280" height="285" as="geometry" />
        </mxCell>
        <mxCell id="l3ruy7dSjuwmS-tjOcvW-18" value="" style="rounded=0;whiteSpace=wrap;html=1;fillColor=none;strokeWidth=3;strokeColor=#FF9999;" vertex="1" parent="l3ruy7dSjuwmS-tjOcvW-1">
          <mxGeometry x="170" y="400" width="480" height="150" as="geometry" />
        </mxCell>
        <mxCell id="l3ruy7dSjuwmS-tjOcvW-19" value="XGBoost Regressor 1" style="ellipse;whiteSpace=wrap;html=1;fillColor=#fff2cc;gradientColor=#ffd966;strokeColor=#d6b656;" vertex="1" parent="l3ruy7dSjuwmS-tjOcvW-1">
          <mxGeometry x="190" y="420" width="90" height="50" as="geometry" />
        </mxCell>
        <mxCell id="l3ruy7dSjuwmS-tjOcvW-20" value="XGBoost Regressor 2" style="ellipse;whiteSpace=wrap;html=1;fillColor=#fff2cc;gradientColor=#ffd966;strokeColor=#d6b656;" vertex="1" parent="l3ruy7dSjuwmS-tjOcvW-1">
          <mxGeometry x="275" y="485" width="90" height="50" as="geometry" />
        </mxCell>
        <mxCell id="l3ruy7dSjuwmS-tjOcvW-21" value="XGBoost Regressor 3" style="ellipse;whiteSpace=wrap;html=1;fillColor=#fff2cc;gradientColor=#ffd966;strokeColor=#d6b656;" vertex="1" parent="l3ruy7dSjuwmS-tjOcvW-1">
          <mxGeometry x="365" y="420" width="90" height="50" as="geometry" />
        </mxCell>
        <mxCell id="l3ruy7dSjuwmS-tjOcvW-22" value="XGBoost Regressor N" style="ellipse;whiteSpace=wrap;html=1;fillColor=#fff2cc;gradientColor=#ffd966;strokeColor=#d6b656;" vertex="1" parent="l3ruy7dSjuwmS-tjOcvW-1">
          <mxGeometry x="540" y="420" width="90" height="50" as="geometry" />
        </mxCell>
        <mxCell id="l3ruy7dSjuwmS-tjOcvW-23" value="" style="endArrow=classic;html=1;rounded=0;entryX=0;entryY=0.5;entryDx=0;entryDy=0;exitX=1;exitY=1;exitDx=0;exitDy=0;strokeColor=#00FFFF;" edge="1" parent="l3ruy7dSjuwmS-tjOcvW-1" source="l3ruy7dSjuwmS-tjOcvW-19" target="l3ruy7dSjuwmS-tjOcvW-20">
          <mxGeometry width="50" height="50" relative="1" as="geometry">
            <mxPoint x="490" y="430" as="sourcePoint" />
            <mxPoint x="540" y="380" as="targetPoint" />
          </mxGeometry>
        </mxCell>
        <mxCell id="l3ruy7dSjuwmS-tjOcvW-24" value="" style="endArrow=classic;html=1;rounded=0;entryX=0;entryY=1;entryDx=0;entryDy=0;exitX=1;exitY=0.5;exitDx=0;exitDy=0;strokeColor=#00FFFF;" edge="1" parent="l3ruy7dSjuwmS-tjOcvW-1" source="l3ruy7dSjuwmS-tjOcvW-20" target="l3ruy7dSjuwmS-tjOcvW-21">
          <mxGeometry width="50" height="50" relative="1" as="geometry">
            <mxPoint x="447" y="585" as="sourcePoint" />
            <mxPoint x="470" y="627" as="targetPoint" />
          </mxGeometry>
        </mxCell>
        <mxCell id="l3ruy7dSjuwmS-tjOcvW-25" value="XGBoost Regressors ..." style="ellipse;whiteSpace=wrap;html=1;fillColor=#fff2cc;gradientColor=#ffd966;strokeColor=#d6b656;" vertex="1" parent="l3ruy7dSjuwmS-tjOcvW-1">
          <mxGeometry x="460" y="480" width="100" height="60" as="geometry" />
        </mxCell>
        <mxCell id="l3ruy7dSjuwmS-tjOcvW-26" value="" style="endArrow=classic;html=1;rounded=0;entryX=0;entryY=0.5;entryDx=0;entryDy=0;exitX=1;exitY=1;exitDx=0;exitDy=0;strokeColor=#00FFFF;" edge="1" parent="l3ruy7dSjuwmS-tjOcvW-1" source="l3ruy7dSjuwmS-tjOcvW-21" target="l3ruy7dSjuwmS-tjOcvW-25">
          <mxGeometry width="50" height="50" relative="1" as="geometry">
            <mxPoint x="440" y="470" as="sourcePoint" />
            <mxPoint x="448" y="517" as="targetPoint" />
          </mxGeometry>
        </mxCell>
        <mxCell id="l3ruy7dSjuwmS-tjOcvW-27" value="" style="endArrow=classic;html=1;rounded=0;entryX=0.5;entryY=1;entryDx=0;entryDy=0;exitX=1;exitY=0.5;exitDx=0;exitDy=0;strokeColor=#00FFFF;" edge="1" parent="l3ruy7dSjuwmS-tjOcvW-1" source="l3ruy7dSjuwmS-tjOcvW-25" target="l3ruy7dSjuwmS-tjOcvW-22">
          <mxGeometry width="50" height="50" relative="1" as="geometry">
            <mxPoint x="750" y="510" as="sourcePoint" />
            <mxPoint x="758" y="557" as="targetPoint" />
          </mxGeometry>
        </mxCell>
        <mxCell id="l3ruy7dSjuwmS-tjOcvW-28" value="" style="shape=flexArrow;endArrow=classic;html=1;rounded=0;" edge="1" parent="l3ruy7dSjuwmS-tjOcvW-1">
          <mxGeometry width="50" height="50" relative="1" as="geometry">
            <mxPoint x="410" y="560" as="sourcePoint" />
            <mxPoint x="410" y="600" as="targetPoint" />
          </mxGeometry>
        </mxCell>
        <mxCell id="l3ruy7dSjuwmS-tjOcvW-29" value="Output" style="ellipse;whiteSpace=wrap;html=1;aspect=fixed;fillColor=#d5e8d4;gradientColor=#97d077;strokeColor=#82b366;" vertex="1" parent="l3ruy7dSjuwmS-tjOcvW-1">
          <mxGeometry x="385" y="610" width="50" height="50" as="geometry" />
        </mxCell>
        <mxCell id="l3ruy7dSjuwmS-tjOcvW-30" value="&lt;font style=&quot;font-size: 12px;&quot;&gt;GCS Value, Ventilation Code, Urine Output&lt;/font&gt;" style="rounded=0;whiteSpace=wrap;html=1;fillColor=#f5f5f5;fontColor=#333333;strokeColor=#666666;" vertex="1" parent="l3ruy7dSjuwmS-tjOcvW-1">
          <mxGeometry x="570" y="350" width="190" height="30" as="geometry" />
        </mxCell>
        <mxCell id="l3ruy7dSjuwmS-tjOcvW-31" value="" style="endArrow=classic;html=1;rounded=0;" edge="1" parent="l3ruy7dSjuwmS-tjOcvW-1">
          <mxGeometry width="50" height="50" relative="1" as="geometry">
            <mxPoint x="560" y="364.64" as="sourcePoint" />
            <mxPoint x="490" y="364.64" as="targetPoint" />
          </mxGeometry>
        </mxCell>
        <mxCell id="lAGA9phOJ6DPOavxG8yT-0" value="&lt;b style=&quot;font-size: 14px;&quot;&gt;&lt;font face=&quot;Verdana&quot; style=&quot;font-size: 14px;&quot;&gt;CNN Feature&lt;/font&gt;&lt;/b&gt;&lt;div style=&quot;font-size: 14px;&quot;&gt;&lt;b style=&quot;&quot;&gt;&lt;font face=&quot;Verdana&quot; style=&quot;font-size: 14px;&quot;&gt;Extraction&lt;/font&gt;&lt;/b&gt;&lt;/div&gt;" style="text;html=1;align=center;verticalAlign=middle;resizable=0;points=[];autosize=1;strokeColor=none;fillColor=none;" vertex="1" parent="l3ruy7dSjuwmS-tjOcvW-1">
          <mxGeometry x="130" y="170" width="120" height="50" as="geometry" />
        </mxCell>
        <mxCell id="G28DPzjcpPJhiwmgrcWj-0" value="&lt;font face=&quot;Verdana&quot;&gt;&lt;span style=&quot;font-size: 14px;&quot;&gt;&lt;b&gt;XGBoost Model&lt;/b&gt;&lt;/span&gt;&lt;/font&gt;" style="text;html=1;align=center;verticalAlign=middle;resizable=0;points=[];autosize=1;strokeColor=none;fillColor=none;" vertex="1" parent="l3ruy7dSjuwmS-tjOcvW-1">
          <mxGeometry x="20" y="460" width="140" height="30" as="geometry" />
        </mxCell>
      </root>
    </mxGraphModel>
  </diagram>
</mxfile>
